<?xml version="1.0" encoding="utf-8"?>
<!-- Generator: Adobe Illustrator 21.0.0, SVG Export Plug-In . SVG Version: 6.00 Build 0)  -->
<svg version="1.1" id="Camada_1" xmlns="http://www.w3.org/2000/svg" xmlns:xlink="http://www.w3.org/1999/xlink" x="0px" y="0px"
	 viewBox="0 0 512 512" style="enable-background:new 0 0 512 512;" xml:space="preserve">
<style type="text/css">
	.st0{fill:#A11E39;}
	.st1{fill:#E5B31A;}
	.st2{fill:#A21F39;}
	.st3{fill:#A21E39;}
	.st4{fill:#A21F3A;}
	.st5{fill:#FEFEFE;}
	.st6{fill:#F7EEF0;}
	.st7{fill:#F6EAED;}
	.st8{fill:#F9F1F3;}
	.st9{fill:#F4E5E8;}
	.st10{fill:#F8F0F2;}
	.st11{fill:#F5E9EC;}
	.st12{fill:#F3E4E7;}
	.st13{fill:#F6EBED;}
	.st14{fill:#F3E3E7;}
	.st15{fill:#F5EAEC;}
	.st16{fill:#F4E6E9;}
	.st17{fill:#F0DDE1;}
	.st18{fill:#F2E2E5;}
	.st19{fill:#F5E7EA;}
	.st20{fill:#F4E6E8;}
	.st21{fill:#EFDBDF;}
	.st22{fill:#F2E0E4;}
	.st23{fill:#F8F0F1;}
	.st24{fill:#F7EDEF;}
	.st25{fill:#F4E7EA;}
	.st26{fill:#F7ECEF;}
	.st27{fill:#F8EFF1;}
	.st28{fill:#F3E3E6;}
	.st29{fill:#F4E7E9;}
	.st30{fill:#EED6DB;}
	.st31{fill:#F5E9EB;}
	.st32{fill:#FAF5F6;}
	.st33{fill:#F5E8EA;}
	.st34{fill:#F1DEE2;}
	.st35{fill:#F8EFF0;}
	.st36{fill:#F1DFE3;}
	.st37{fill:#FBF7F8;}
	.st38{fill:#F6EAEC;}
	.st39{fill:#F2E3E6;}
	.st40{fill:#F5E8EB;}
	.st41{fill:#F2E1E5;}
	.st42{fill:#F3E5E8;}
	.st43{fill:#EDD6DB;}
	.st44{fill:#F6ECEE;}
	.st45{fill:#FCF8F9;}
	.st46{fill:#F2E1E4;}
	.st47{fill:#F8F1F2;}
	.st48{fill:#F9F2F3;}
	.st49{fill:#F7ECEE;}
	.st50{fill:#EED8DC;}
	.st51{fill:#EBCFD5;}
	.st52{fill:#ECD3D8;}
	.st53{fill:#FAF4F5;}
	.st54{fill:#EED7DC;}
	.st55{fill:#F0DBDF;}
	.st56{fill:#D08E9C;}
	.st57{fill:#EFD9DE;}
	.st58{fill:#ECD3D9;}
	.st59{fill:#FBF6F7;}
	.st60{fill:#E8CAD0;}
	.st61{fill:#F1DFE2;}
	.st62{fill:#EBD1D6;}
	.st63{fill:#FCFAFA;}
	.st64{fill:#EED7DB;}
	.st65{fill:#EFDADE;}
	.st66{fill:#EBD0D6;}
	.st67{fill:#EED9DD;}
	.st68{fill:#DFB4BD;}
	.st69{fill:#EACFD4;}
	.st70{fill:#F6EBEE;}
	.st71{fill:#EACED4;}
	.st72{fill:#E2BAC3;}
	.st73{fill:#EDD5DA;}
	.st74{fill:#EACDD3;}
	.st75{fill:#E4C0C7;}
	.st76{fill:#EFDBE0;}
	.st77{fill:#E6C3CB;}
	.st78{fill:#E4C0C6;}
	.st79{fill:#FAF5F7;}
	.st80{fill:#E4BFC7;}
	.st81{fill:#FDFBFC;}
	.st82{fill:#EDD6DA;}
	.st83{fill:#EBD0D5;}
	.st84{fill:#E6C4CB;}
	.st85{fill:#FDFCFC;}
	.st86{fill:#E5C1C7;}
	.st87{fill:#F0DCE0;}
	.st88{fill:#E3BEC6;}
	.st89{fill:#DFB2BB;}
	.st90{fill:#E3BCC4;}
	.st91{fill:#E9CDD3;}
	.st92{fill:#E2BAC2;}
	.st93{fill:#E8C9D0;}
	.st94{fill:#E9CBD2;}
	.st95{fill:#E4BEC6;}
	.st96{fill:#E0B6BE;}
	.st97{fill:#EDD4DA;}
	.st98{fill:#ECD1D6;}
	.st99{fill:#DEB0B9;}
	.st100{fill:#EED8DD;}
	.st101{fill:#F1E0E3;}
	.st102{fill:#E2BCC3;}
	.st103{fill:#D79FAA;}
	.st104{fill:#E5C2C9;}
	.st105{fill:#ECD2D7;}
</style>
<path class="st0" d="M263.1,260.1c0.2,1.4-0.3,2.3-0.8,3.2c-2.6,4.9-4.8,10.1-8.3,14.6c-6.1,7.8-14.4,12.3-23.4,15.9
	c-9.5,3.8-19.4,3.1-29.2,3.4c-8.6,0.2-16.6-1.8-24.2-5.7c-5.6-2.9-10.9-6.4-14.7-11.2c-5.5-6.9-9.8-14.5-12-23.3
	c-3.9-15.9-3.8-31.6,0.6-47.3c1.2-4.3,3.1-8.4,5.6-12.1c0.7-1.1,1.4-2.2,2-3.4c4.4-9.3,12.2-14.3,21.6-17.2
	c7.9-2.4,16.2-3.3,24.3-4.5c12.8-2,25.6-3.6,38.1-7.1c4-1.1,7.7-2.9,11.4-4.6c1.3-0.6,2-1.7,2.7-2.9c2.8-5,2.6-10.4,2.5-15.8
	c-0.1-6-0.2-11.9-0.4-17.9c-0.3-11.2,0-22.5-0.7-33.7c-0.2-2.9-0.6-5.8-1-8.7c-1-7.1-5.2-10.8-12-12.1c-5.7-1.1-11.3-0.4-16.5,2.1
	c-7.8,3.8-10.1,12.3-5.2,19.5c1.3,1.9,2.8,3.6,4.4,5.3c4,4.1,7.6,8.7,8.4,14.4c1.8,12.5,1,24.7-8.2,34.6
	c-4.6,4.9-10.4,8.3-16.9,10.2c-9.8,2.8-19.8,3.8-29.8,1.7c-7.6-1.6-14.1-5.3-18.5-11.9c-2.9-4.4-4.5-9.4-4.9-14.5
	c-0.5-6.4,0-12.8,1.1-19.1c1.9-10.5,7.6-19,15.6-25.8c12.7-10.8,27.2-18.4,43.7-21.7c6.4-1.3,12.9-1.7,19.4-2.2
	c9.7-0.7,19.5-0.7,29.2,0c10.6,0.7,20.5,4,30.2,8.4c9.6,4.4,18.3,10.3,25.8,17.8c4.7,4.7,8.1,10.2,10.2,16.5c0.2,0.5,0.2,1,0.5,1.4
	c2.6,4.8,2.6,9.9,2.6,15.2c0.3,30.1,0.7,60.2,0.8,90.3c0,13.3,0,26.6,1,39.9c0.2,2.7,0.5,5.3,1.1,7.9c0.8,3.4,2.7,5.9,5.6,7.8
	c3.2,2.1,7.6,1.5,10.9-1.3c2.2-1.9,3.6-4.3,4.4-7c2.8-8.7,4.3-17.6,5.6-26.6c0.4-3.1,0.8-6.2,0.8-9.3c0-1.4,0.7-2,2-2.1
	c0.7,0,1.4,0,2.1,0c0.9-0.1,1.2,0.3,1.1,1.2c-0.5,6.5-1,13-1.6,19.5c-0.7,7.4-1.4,15-4.3,21.9c-7.6,17.6-20.2,29.4-39.8,32.5
	c-8.8,1.4-17.5,1.6-26.3-0.3c-7.7-1.7-14.3-5.2-20-10.6c-5.5-5.3-10.7-10.9-13.4-18.3c-0.6-1.6-1.1-3.2-1.7-4.7
	C264.3,261.4,264.1,260.7,263.1,260.1z"/>
<path class="st0" d="M327.3,336.9c1.2-1.8,2.1-3.7,3.7-5.1c3.5-3.2,10.8-5.2,15.9-1.9c0.7,0.5,1.5,0.8,2.3,1.3
	c2.6,1.6,3.5,1.3,4.3-1.7c0.2-0.7-0.1-2.1,0.8-2c0.8,0.1,0.4,1.4,0.4,2.1c0.1,4.7,0.2,9.4,0.2,14.2c0,0.4,0.3,1.2-0.2,1.3
	c-0.8,0.2-1-0.6-1.2-1.2c-0.7-2.3-1.6-4.4-2.6-6.6c-0.8-1.6-1.7-3-2.8-4.4c-1.6-1.9-3.6-3.1-6.3-3.1c-1.8,0-3.2,0.6-4,2.2
	c-0.8,1.7-0.8,3.5,0.4,5.1c1.8,2.4,4.5,3.7,6.9,5.3c3.9,2.5,7.7,5.1,9.9,9.3c4.4,8.3-0.1,20-12,19.9c-3.7,0-7-0.8-9.9-3
	c-0.8-0.6-1.8-1.1-2.7-1.6c-1-0.5-1.3,0.3-1.6,0.9c-0.5,1.1,0.4,0.9,0.9,1.1c0.9,0.4,2.7-0.3,2.5,1.2c-0.2,1.3-1.8,0.4-2.7,0.5
	c-0.9,0.1-1.7,0-2,1.1c-0.1,0.4-0.8,0.7-0.8,0c0-1.5-1-1.1-1.8-1.1c-10.3,0-20.6,0-31,0c-0.4,0-0.9,0-1.3,0c-0.4,0-0.9,0.1-1-0.6
	c0-0.6,0.2-1,0.8-0.9c2.1,0.1,2.5-1.2,2.5-3c0.1-9.7,0.2-19.4,0-29.1c0-1.1-0.2-2.2-0.4-3.3c-0.7-2.5-3-3.2-5.1-1.6
	c-1.9,1.5-2.6,3.7-2.6,5.9c0,9.6,0.1,19.1,0.2,28.7c0,1.4,0.7,2.2,2.1,2.4c0.5,0.1,1,0.2,1,0.9c-0.1,0.8-0.7,0.5-1.1,0.5
	c-6.2,0-12.3,0-18.5,0c-0.4,0-1.1,0.2-1.2-0.5c-0.1-0.8,0.6-0.8,1.2-0.9c1.6-0.1,2.1-1,2.1-2.5c0-10.3,0-20.6,0-31
	c0-3.2-1.4-4.7-4.1-4.4c-1.2,0.1-2,0.7-2.5,1.7c-0.9,1.7-1.6,3.4-1.6,5.5c0.1,8.9,0.1,17.8,0.1,26.7c0,2-0.1,4,2.7,4.2
	c0.4,0,0.6,0.4,0.6,0.8c-0.1,0.8-0.8,0.5-1.2,0.5c-4.7,0-9.5,0-14.2,0c-3.4,0-6.8-0.1-10.2,0.5c-5.3,1-8.6-1.1-10.9-6
	c-0.1,0.1-0.3,0.1-0.3,0.2c-2.2,5.8-8.8,7.1-14.6,5.5c-0.6-0.2-1.1-0.2-1.6-0.2c-7.5,0-15.1,0-22.6,0c-0.5,0-1,0.1-1.4,0.2
	c-6.1,1.7-10,0-13.1-6c-1.3,3.4-3.6,5.5-7,6.2c-8,1.7-13.7-1.8-14.2-10.2c-0.2-2.8,0.2-5.5,1.7-8.1c1.3-2.3,3.1-3.4,5.6-3.9
	c3.4-0.6,6.8-0.9,10.1-1.8c2.8-0.8,3.2-1.5,3.1-4.4c-0.1-3.3-0.1-6.6-0.2-9.9c-0.1-2.6-1.7-3.8-4.3-3.2c-2.4,0.5-3.1,2.5-1.6,4.4
	c2.5,3.1,2.8,6.8,0.6,9.3c-2.2,2.5-7.6,3.5-10.5,1.8c-3-1.7-3.7-7.1-1.2-10.7c1.6-2.3,3.8-3.9,6.3-4.7c6.3-2.2,12.6-2.7,18.8,0.5
	c4.2,2.1,6.5,5.3,6.4,10.4c-0.2,7.1,0.1,14.3,0.2,21.4c0,0.8,0.1,1.6,0.3,2.4c0.2,0.9,0.8,1.6,1.8,1.7c0.9,0,1.5-0.6,1.8-1.4
	c0.7-1.8,1.2-3.7,1.2-5.6c0-8.5-0.1-17-0.2-25.6c0-2-0.5-2.4-3.1-2.8c-0.7-0.1-1.7,0.1-1.5-1.1c0.1-1.1,1.1-0.6,1.6-0.6
	c5.3,0,10.6,0,15.9-0.1c1.4,0,1.6,0.4,1.6,1.7c0,6.9,0.1,13.8,0.2,20.7c0,0.7-0.2,1.3,0.3,2.3c1.9-4.8,6.2-4.7,10.1-5.4
	c1.6-0.3,3.2-0.5,4.8-0.8c0.8-0.2,1.5-0.5,2.3-0.7c1.4-0.4,2-1.4,2-2.8c-0.1-3.9-0.2-7.7-0.3-11.6c0-1.4-0.7-2.4-2.1-2.7
	c-1.5-0.3-3-0.2-4.1,1.1c-1.1,1.4-0.3,2.6,0.7,3.6c1.4,1.4,1.9,3,1.8,4.9c-0.2,3.1-1.6,5.1-4.6,6.1c-1.5,0.5-3.2,0.7-4.8,0.5
	c-3.4-0.4-5.1-2.4-5.2-5.8c-0.1-3.8,1.5-6.5,4.5-8.6c6.1-4.5,19.6-5,25.6,1.2c1.8,1.8,2.8,3.9,2.8,6.5c0.1,7.8,0.2,15.5,0.3,23.3
	c0,1.5,0,3.4,1.9,3.6c1.9,0.2,2.2-1.7,2.5-3.1c0.6-2.5,0.9-5,0.9-7.6c-0.1-6.3,0-12.6-0.1-18.8c0-0.9-0.2-1.7-0.2-2.6
	c0-2.2-1-3.2-3.1-3.3c-0.5,0-1.6,0.2-1.4-0.9c0.1-1,1-0.6,1.5-0.6c5.2,0,10.5,0,15.7-0.1c1.3,0,1.6,0.5,1.6,1.6
	c-0.1,1.2,0,2.4,0.1,3.7c1.6-2.6,3-5.5,6.5-5.9c3.1-0.4,6.2-0.3,9.2,0.8c3.1,1.2,4.9,3.7,6.3,6.8c0.6-1.4,1-2.5,1.5-3.7
	c0.7-1.6,1.7-2.9,3.4-3.3c5.2-1.4,10.2-1.5,14.6,2.4c2.9,2.5,3.8,5.9,3.8,9.6c0.1,8.3,0.1,16.7,0.2,25c0,0.1,0,0.2,0,0.4
	c0,1.3,0.3,2.8,1.8,2.7c1.4,0,1.7-1.5,1.8-2.7c0-10.8,0-21.6-0.1-32.4c0-2.2-1-2.8-2.8-3.1c-0.3,0-0.6-0.1-0.9-0.1
	c-0.6,0-0.9-0.3-0.9-0.9c0-0.7,0.4-0.8,0.9-0.8c5.7,0,11.4,0,17.2,0c0.9,0,1,0.4,1,1.2C327.3,332.6,327.3,334.7,327.3,336.9z"/>
<path class="st1" d="M134.6,148.5c0,10.3,0,20.6,0,31c0,1.5-0.5,2-1.9,2.2c-18.6,2.2-37.1,4.8-55.4,8.2c-1.5,0.3-1.9-0.2-2.2-1.6
	c-2.9-15.8-5.7-31.6-8.7-47.4c-0.8-4.6-1.7-9.2-2.7-13.7c-0.3-1.4,0.1-1.8,1.4-2c8.8-1.4,17.5-2.9,26.3-4.3
	c10.5-1.7,21.1-3,31.7-4.3c3.4-0.4,6.8-0.7,10.2-1.2c1.3-0.2,1.2,0.6,1.2,1.4c0,4.5,0,9.1,0,13.6
	C134.6,136.5,134.6,142.5,134.6,148.5z"/>
<path class="st1" d="M380.2,148.1c0-10.3,0-20.6,0-31c0-1.8,0.5-2,2.1-1.9c11.2,1.4,22.4,2.7,33.6,4.3c10.8,1.5,21.5,3.2,32.2,5
	c1.9,0.3,2.2,0.9,1.8,2.6c-4.2,17.8-6.7,35.9-9.9,53.8c-0.4,2.4-0.9,4.9-1.3,7.3c-0.2,1-0.6,1.3-1.6,1.1
	c-14.2-2.6-28.6-4.6-42.9-6.5c-4.1-0.6-8.2-1.1-12.4-1.5c-1.5-0.1-1.6-0.7-1.6-2C380.3,169,380.2,158.5,380.2,148.1z"/>
<path class="st1" d="M471.5,214.4c-12.2-3-24.4-5.9-36.7-8.3c-8.6-1.6-17.2-3.1-25.8-4.6c-1.3-0.2-1.4-0.6-1.3-1.8
	c0.6-3.5,1.2-7,1.6-10.5c0.2-1.2,0.7-1.4,1.7-1.2c8.8,1.4,17.7,2.8,26.5,4.3c3.2,0.5,3.2,0.6,3.7-2.5c2.6-15.3,5.3-30.6,7.9-45.9
	c0.2-1.5,0.6-1.8,2.2-1.5c11.5,2.4,23,5.1,34.7,8c-2.1,2.3-4.1,4.5-6.1,6.7c-5.8,6.6-11.6,13.2-17.4,19.7c-0.8,0.9-0.9,1.7-0.5,2.8
	c3.4,11,6.5,22,9.4,33.1C471.6,213.3,471.9,213.7,471.5,214.4z"/>
<path class="st1" d="M30.2,150.4c5.3-1.3,10.4-2.6,15.5-3.7c5.3-1.2,10.7-2.4,16-3.5c2.4-0.5,2.4-0.5,2.8,1.8
	c2.9,15.6,5.7,31.3,8.6,46.9c0.2,1.3,0.6,1.4,1.8,1.2c9.3-1.6,18.6-3.1,27.9-4.6c1.2-0.2,1.6,0.1,1.8,1.3c0.4,3.5,0.9,7,1.6,10.5
	c0.2,1.2-0.1,1.4-1.2,1.6c-12.9,2.2-25.8,4.5-38.6,7.4c-6.8,1.5-13.5,3.2-20.3,4.8c-1.4,0.3-1.8,0.3-1.4-1.4c3-11,6-22,9.4-32.9
	c0.4-1.3,0.2-2.1-0.7-3.2c-7.3-8.5-14.7-16.9-22.3-25.1C30.8,151.3,30.6,150.9,30.2,150.4z"/>
<path class="st0" d="M365.8,390.1c-1.4-4.8-1.8-9.5-1.4-14.3c0.8-9.7,5.8-16.9,13.2-22.8c1.4-1.1,1.7-0.8,2.1,0.8
	c3.3,14.2-1.2,26.9-12.7,35.4C366.7,389.5,366.3,389.7,365.8,390.1z"/>
<path class="st0" d="M392.2,313.3c4,4.6,6.8,9.8,8.2,15.7c1.9,8.3,0,16.1-3.7,23.6c-0.8,1.6-1.2,0.5-1.7-0.1
	c-8.8-11.2-10.4-23.3-4.4-36.3C391,315.2,391.3,314.2,392.2,313.3z"/>
<path class="st0" d="M134.9,351.9c6,4.3,10.7,9.5,13.1,16.3c2.5,6.8,2.2,13.8,0.6,20.7c-0.3,1.2-0.6,1.1-1.4,0.5
	c-9.6-7.3-14.7-16.8-13.8-29.1c0.1-1.7,0.4-3.5,0.6-5.2C134.2,354.2,134.5,353.2,134.9,351.9z"/>
<path class="st0" d="M187.9,415.5c-12.8,9.2-26.8,8.6-38.2-1.8C162.4,404.5,176.2,405.3,187.9,415.5z"/>
<path class="st0" d="M111.1,355.3c-10.3-4.8-17.3-12.1-19.3-23.5c-0.6-3.2-0.8-6.5-0.7-9.8c0.1-1.1,0.3-1.6,1.5-1
	c10.9,5.5,17.5,14,18.6,26.4C111.4,350,111.7,352.5,111.1,355.3z"/>
<path class="st0" d="M324.9,408.7c-1.3,0.3-1.3-0.3-1-1.3c4.3-15.4,13.5-22.4,26.8-24.4c0.4-0.1,0.9,0,1.3-0.1
	c1.1-0.2,1.3,0.3,1,1.3c-4.2,14.8-12.5,21.6-24.7,24.1C327.1,408.4,326,408.5,324.9,408.7z"/>
<path class="st0" d="M374.5,394.8c-3.9-0.1-3.8,0.5-2.1-3.3c4.4-9.5,11.1-16.2,21.8-18.2c2.6-0.5,5.3-0.7,8-0.6c1,0,1.5,0.1,1,1.3
	C397.7,387.6,388.5,394.4,374.5,394.8z"/>
<path class="st0" d="M162.1,382.8c12.8,1.4,21.6,7.6,26.3,19.3c0.7,1.7,1.2,3.4,1.8,5.1c0.4,1.1,0.2,1.6-1.1,1.4
	c-8.4-1-15.8-4-21.3-10.9c-3.1-4-5.2-8.6-6.6-13.4C160.9,383.2,160.9,382.5,162.1,382.8z"/>
<path class="st0" d="M326.2,415.5c9.6-8.5,21-10.8,32.4-5.3c1.6,0.8,3.1,1.8,4.7,2.6c1.2,0.6,1.1,1.1,0.1,1.9
	c-10.2,8.4-22.2,9.5-33.8,3C328.4,417.1,327.2,416.5,326.2,415.5z"/>
<path class="st0" d="M110.6,372.9c16.5-1,26.4,7.1,31.9,20.6c0.3,0.8,0.4,1.3-0.8,1.3C127.8,395.2,116.2,389.1,110.6,372.9z"/>
<path class="st0" d="M117.9,353.6c-5.4-10.3-7-20.7-1.8-31.5c1.4-2.9,3.1-5.5,5.1-8c0.5-0.6,0.9-1.1,1.4,0
	C129.2,327.1,129,341.1,117.9,353.6z"/>
<path class="st0" d="M408.8,314.1c-5.5-10.8-6.8-21.6-0.9-32.6c1.3-2.5,2.9-4.8,4.7-7c0.5-0.7,0.9-0.7,1.3,0.1
	c6.8,13.6,5.8,26.9-4.4,39C409.2,313.8,409,313.9,408.8,314.1z"/>
<path class="st0" d="M402.9,355c-1.3-15.1,4.5-27.9,19.7-34.4C426.1,332.9,415.2,352.1,402.9,355z"/>
<path class="st0" d="M105.1,313.9c-11-12-11.8-27.1-4.2-40C111.7,285.6,112.9,301,105.1,313.9z"/>
<path class="st2" d="M283.3,413.7c-2.5,2-5.1,2.2-7.9,1.7c-2.6-0.5-4.3-2.1-4.8-4.8c-0.2-0.8-0.3-1.7-0.3-2.6
	c-0.1-6.6,4.3-10,10.7-8.2c2.8,0.8,4.7,2.8,4.9,5.7c0.4,5.1,0.4,10.2,0,15.3c-0.3,2.8-2,4.8-4.8,5.5c-2.1,0.6-4.2,0.6-6.2-0.1
	c-2.5-0.8-4.1-2.6-4.5-5.2c-0.1-0.8,0-1.6,0.9-1.8c0.9-0.2,1.4,0.2,1.6,1.3c0.5,2.7,2.7,4.1,5.7,3.9c2.9-0.2,4.5-1.7,4.8-4.5
	C283.5,417.8,283.5,415.9,283.3,413.7z"/>
<path class="st2" d="M265.8,413.5c-2.3,1.9-4.6,2.3-7.1,1.9c-3.6-0.5-5.3-2.1-5.8-5.7c-0.1-0.7-0.1-1.4-0.1-2c0-6.8,5.7-10.4,12-7.5
	c2.2,1,3.4,2.8,3.6,5.1c0.5,5.1,0.5,10.2,0,15.3c-0.3,2.9-2,4.9-4.9,5.6c-2.5,0.6-5.1,0.6-7.4-0.7c-1.9-1-2.9-2.6-3.2-4.7
	c-0.1-0.8,0.1-1.5,1-1.7c0.8-0.1,1.3,0.2,1.5,1.2c0.6,2.8,2.7,4.2,5.8,4c2.8-0.2,4.5-1.7,4.7-4.6
	C265.9,417.8,265.8,415.9,265.8,413.5z"/>
<path class="st3" d="M248.3,413.5c-2.5,2.2-5.2,2.4-8.1,1.9c-2.6-0.5-4.3-2.1-4.8-4.8c-0.3-1.6-0.4-3.2-0.1-4.8
	c0.7-4.4,3.7-6.6,8.6-6.2c4.5,0.4,6.9,2.9,7,7.3c0,4.4,0.1,8.7,0,13.1c-0.1,3.8-2.7,6.3-6.5,6.6c-4.9,0.4-8.2-1.5-9-5
	c-0.2-0.9-0.6-2,0.7-2.3c1.3-0.4,1.6,0.6,1.8,1.7c0.4,2.1,2.6,3.5,5.4,3.4c2.6-0.1,4.5-1.4,4.9-3.7
	C248.5,418.3,248.3,416.1,248.3,413.5z"/>
<path class="st0" d="M327.3,314.5c0.1,1.3-0.1,2.7-0.8,4.1c-1.2,2.4-3,4.1-5.9,4.2c-3.1,0.1-5.4-1.4-6.6-4.1
	c-1.3-2.9-1.2-5.9,0.4-8.7c1.8-3.1,4.4-4.1,7.9-3.2c2.7,0.7,4.9,3.7,5,6.7C327.3,313.7,327.3,314,327.3,314.5z"/>
<path class="st0" d="M210.5,314.1c0.2,2.6-0.4,4.8-2.2,6.6c-3.2,3.2-8.2,2.8-10.5-1.1c-2-3.2-2-6.6,0-9.9c1.9-3.1,4.5-4.1,7.9-3.1
	c2.7,0.8,4.8,3.7,4.8,6.8C210.5,313.8,210.5,314,210.5,314.1z"/>
<path class="st4" d="M230.3,404.1c-0.6,0.9-0.9,1.4-1.3,1.8c-0.3,0.4-0.8,0.7-1.3,0.4c-0.5-0.3-0.6-0.8-0.3-1.3
	c1.1-1.9,2.3-3.7,3.8-5.3c0.8-0.8,1.7-0.4,1.8,0.8c0.1,1,0,2.1,0,3.2c0,6.9,0,13.8,0,20.7c0,1,0.1,2-1.3,2c-1.3,0-1.3-1-1.3-2
	c0-6,0-12,0-18.1C230.3,405.7,230.3,405.1,230.3,404.1z"/>
<path class="st3" d="M300,413c0,2.5-1.8,4.3-4.2,4.3c-2.2,0-4-1.9-4-4.2c0-2.4,1.8-4.4,4.1-4.4C298.3,408.6,300.1,410.5,300,413z"/>
<path class="st2" d="M220.9,413c0,2.5-1.8,4.3-4.2,4.3c-2.3,0-4-2-4-4.4c0.1-2.4,1.8-4.2,4.1-4.2C219.1,408.6,220.9,410.5,220.9,413
	z"/>
<path class="st5" d="M258.4,164c0.6,3.9,0.7,7.6,0.8,11.2c0.6,16.7,0.7,33.3,0.5,50c-0.1,10-0.1,20-1,30c-0.8,9-4.8,16.3-13.1,20.5
	c-6.8,3.5-13.1,1.3-16.5-5.7c-2.5-5.2-3.3-10.8-4-16.4c-2-17-1.3-34,1.1-50.9c0.9-5.9,2.5-11.5,4.9-16.9c1.3-3.1,3.7-5.3,6.3-7.2
	c2.5-1.8,5-3.4,7.7-4.9C249.8,171,254.3,168.1,258.4,164z"/>
<path class="st5" d="M304.1,149.9c-4.8,1.5-9.2,3-13.8,3.9c-8.9,1.7-14.8-1.2-19-9.1c-0.4-0.8-0.8-1.6-0.9-2.4
	c-0.6-4.7-0.7-9.3,0.2-13.9c1-5.5,6.9-10.5,13.1-11.6c3.6-0.6,7.2-0.4,10.6,1.2c4.9,2.3,6.8,7.8,4.8,13.2c-1.7,4.4-7.3,7.4-11.7,6.2
	c-3.7-1-5.4-5-3.3-8.1c1.1-1.7,3.3-2.2,5.3-2.2c1.8,0,3.1,1.1,3.5,3c0.1,0.6,0.3,1.2,0.9,1.2c0.7,0.1,1.1-0.6,1.3-1.2
	c1.1-4.1,0.7-7.8-4.2-9.2c-6.6-1.9-15.7,0-16.8,11.6c-0.6,5.9,0.4,11.3,4.8,15.7c1.1,1.1,2.2,1.7,3.7,1.9c8.4,0.8,16-1.4,23.1-5.7
	c5.2-3.1,7.8-8.2,8.7-13.9c1-6.1,1.5-12.4,0.4-18.6c-2.2-12.3-9.1-21.6-20-27.8c-9.5-5.3-19.6-9-30.2-11.4c-1.2-0.3-2.4-0.5-3.7-0.5
	c-1.4-0.1-2.7-0.3-2.7-2c0-1,1.9-2.4,3.2-2.3c2.7,0.2,5.3,0.7,7.8,1.6c8.7,3.1,17.3,6.5,25.7,10.4c10.8,5,18.1,13.4,21.9,24.6
	c5.7,16.8,3.2,32.3-7.8,46.3c-5.3,6.7-11.2,12.9-16.7,19.3c-6.9,8-12.2,17.1-15,27.4c-2,7.1-1.5,14.6-0.9,21.9
	c0.3,3.3,2.4,6,4.9,8.1c8,6.7,17,8.8,27,5.3c7.9-2.8,12.1-9.6,11.9-18.3c-0.1-6.6-2.5-12.1-7.7-16c-7.8-5.8-19.6-1.5-21.5,7.6
	c-0.7,3.2,1.3,6.6,4.3,7.6c0.7,0.3,0.9,0,1-0.6c0.1-0.7,0.1-1.4,0.1-2c0.1-2.4,1.5-3.9,3.5-4.8c1.9-0.9,3.6-0.4,5.3,0.7
	c1.1,0.8,1.6,1.9,1.6,3.2c0.1,4.4-3.8,8.1-8.2,7.7c-5.8-0.5-10.3-4-11.4-8.8c-0.5-2.4-0.5-4.7,0.9-6.8c3.7-5.7,9.1-9.7,15.7-9.7
	c9.8,0,15.7,3.7,18.5,12.3c2.4,7.7,2.8,15.4-1.9,22.6c-2.1,3.3-5.1,5.8-8.1,8.1c0,0-0.1,0.1-0.2,0.1c-0.4,0.7-2-0.2-1.8,1
	c0.2,1,1.4,1.3,2.3,1.7c6.3,3.1,11,7.8,12.9,14.6c1.4,5.3,1,10.9-1,15.9c-2.5,5.9-7.4,9.4-13.9,10c-2.8,0.2-5.7,0.1-8.6,0
	c-6.7-0.3-12.3-8.2-10.1-14.6c1.3-3.6,2.6-7.3,7.1-8.4c2.2-0.5,4.3-0.6,6.4,0.1c3.5,1,4.6,3.7,3.1,7c-1.9,3.8-4.5,4.5-8,2.1
	c-0.8-0.6-1.5-1.3-1.5-2.4c0-0.6-0.2-1.1-0.9-1.2c-0.6-0.1-1.1,0.2-1.4,0.7c-1.3,1.8-1.7,3.8-1.2,6c1.4,5.8,6.9,7.5,11.4,7.2
	c0.6,0,1.2-0.3,1.8-0.3c8.3,0.2,14.7-7.1,13.9-16.2c-0.9-9.9-4.6-14.7-14.2-17.4c-1.8-0.5-3.6-0.9-5.4-1.3c-2.9-0.6-5.8-1.3-8.7-1.8
	c-6.7-1.3-12.2-4.8-16.9-9.6c-3.1-3.2-4.9-6.9-5-11.5c-0.2-9.3-0.5-18.7,3.3-27.5c2.8-6.7,6.6-12.8,10.7-18.7
	c4.2-6.1,9.9-11,14.8-16.5C302,152.9,303.2,151.7,304.1,149.9z"/>
<path class="st5" d="M195.3,238.3c1,0.6,2,0.8,3,0.9c6,0.7,11.1,5.9,12.3,11.9c1.1,5.6-1.1,9.2-5.7,11.9c-1,0.6-2.1,1.1-3,1.8
	c-2.1,1.6-4.2,1.6-6.5,0.5c-2.3-1.1-4.4-2.6-5.8-4.8c-1.3-1.9-1.1-3,0.5-4.6c2.6-2.5,4.7-2.9,7.3-1.1c1.6,1.1,2.3,2.5,2.3,4.4
	c0,1,0,2,0,3c6.4-2.6,9.3-8,6.7-12.6c-1.9-3.2-4.6-5.7-8.4-6.7c-8-2-19.1,3.2-19.5,15.2c-0.4,11.7,8.4,21.6,20.4,23.3
	c9.8,1.4,19.6,1.4,29.3-0.2c1.8-0.3,3.6-0.4,5.4-0.3c1.1,0.1,2.2,0.3,2.4,1.4c0.2,1.2-1.1,1.3-1.9,1.6c-3.3,1.1-6.8,1.3-10.3,1.7
	c-7.5,1-14.9,1.8-22.5,0.5c-6-1-11.5-3-16.5-6.4c-6.1-4.2-9-10.1-9.7-17.4c-0.8-9.6,3.1-16.7,10.6-22.1c4.8-3.4,9.7-6.7,13.8-11.1
	c5-5.5,8.2-11.8,8-19.5c-0.3-14.9-16.6-25.1-29.8-18.7c-5.2,2.5-12.4,12.4-10.9,19.2c0.6,2.6,1.5,5,2.9,7.2c1.7,2.6,4.3,3.6,7.1,3.8
	c3.4,0.3,6.7-0.4,9.7-2.1c2-1.2,3.4-2.9,4-5.2c0.1-0.5,0.4-1,0-1.4c-0.5-0.4-1.1-0.2-1.6,0.1c-0.4,0.2-0.7,0.5-1,0.8
	c-1.3,0.9-2.7,1.9-4.3,0.9c-1.7-1.2-3.7-2.4-3.6-4.8c0-2,1.3-3.5,3.2-4.2c3.3-1.2,6.6-0.9,9.3,1.5c2.5,2.2,2.5,5.3,1.5,8.3
	c-2,6-8.6,10.4-15.4,10.5c-7,0.1-12.2-3.7-14.8-10.1c-4.7-11.7,2.7-22.9,11.1-27.2c14.1-7.3,32.6-0.8,35.9,17.9
	c1.8,9.9-1.5,18-8.2,25.2C200.4,233.6,197.8,235.8,195.3,238.3z"/>
<path class="st5" d="M222.4,122c0.7,4.8-0.6,9.6-4.2,13.7c-4.8,5.4-10.3,9.4-17.7,10.6c-5.4,0.9-10.8,1-16-0.6
	c-11.1-3.4-17.3-11.8-17-23.6c0.2-11.4,4.7-21,12.8-29.1c4.2-4.2,8.7-7.7,13.8-10.6c7.1-4,14.5-7.6,21.9-11.2
	c0.6-0.3,1.4-1.2,2.1-0.2c0.7,0.9,0.2,1.8-0.5,2.5c-1.1,1.3-2.5,2.2-3.9,3.1c-4.5,2.7-9.2,5.1-13.9,7.5c-8.1,4.1-15.2,9.6-20.8,16.6
	c-6.3,7.9-9,17-7.2,27c1.5,8.6,7.4,13.2,15.2,15.3c8.8,2.4,16.8,0.3,23.9-5.4c2-1.6,3.9-3.5,5.4-5.6c3.3-4.5,3.9-9.6,2.7-14.9
	c-0.7-2.9-2.6-5-5.4-6.2c-5.7-2.4-12-1.3-15.9,2.7c-3.3,3.4-3.1,8.7,0.5,11.8c0.7,0.6,1.5,1.1,2.5,1.2c0.9,0.1,2,0.3,2.6-0.5
	c0.5-0.9-0.5-1.4-1-2c-1-1.5-1.5-3.2-0.6-4.9c0.9-1.7,2.3-2.5,4.2-2.5c3-0.1,4.5,0.7,5.2,2.7c1,2.8,0.2,5.8-2.1,7.8
	c-5.1,4.3-11.9,3.9-15.8-0.9c-4.1-5.2-3.1-12.4,2.6-16.6c4.9-3.5,10.4-3.7,16.1-2.8c3.4,0.5,6.3,2,8.7,4.6c1.3,1.4,1.9,3,1.9,4.9
	C222.4,118.1,222.4,119.8,222.4,122z"/>
<path class="st5" d="M327.8,346.7c2.2,5,6.2,7.4,10.2,9.9c1.4,0.9,2.7,1.7,4,2.7c2.6,2,3.4,4.7,2.8,7.7c-0.4,1.8-1.8,2.8-3.7,2.9
	c-2.6,0.1-4.9-0.6-6.8-2.4C330,363.3,326.4,353.7,327.8,346.7z"/>
<path class="st5" d="M230.2,356.2c0,2.2,0,4.5,0,6.7c0,1.6-0.4,3.1-1.6,4.2c-1.6,1.5-3.5,1.1-4-1c-1.1-4.8-1.2-9.7,0.5-14.5
	c0.7-2.1,2.9-2.6,4.5-3.7c0.7-0.5,0.7,0.4,0.7,0.8C230.2,351.2,230.2,353.7,230.2,356.2z"/>
<path class="st5" d="M176.6,347.4c0.3,6,0.4,11.6-0.1,17.2c-0.1,1.1-0.7,2-1.5,2.7c-1.6,1.3-3.4,1-3.9-1.1
	c-1.2-4.9-1.2-9.8,0.5-14.7C172.3,349.4,174.7,349.1,176.6,347.4z"/>
<path class="st6" d="M179.7,357.8c-1.2-2.1-0.6-4.2,0.2-6.3c1-2.6,3-4.5,4.8-6.5c-0.6-0.6-1.1,0.2-1.6,0c-0.2-0.1-0.4-0.1-0.4-0.4
	c4.3-0.9,4.6-4.2,4.4-7.8c0.7,1.7,0.8,3.3,0.2,5c-0.5,1.6-1.4,2.9-2.6,4.1C181.6,349.3,179.3,353,179.7,357.8L179.7,357.8z"/>
<path class="st7" d="M237,344.5c4.2-1.8,4.9-7.7,1.2-10.9c-0.7-0.6-1.5-1-2.3-1.5c0-0.4,0.1-0.5,0.5-0.3c4.5,1.8,6.4,7.5,3.8,11.8
	c-1.3,2.2-3.1,3.9-4.7,5.8c-0.3,0-0.5,0-0.4-0.4c0.7-1.4,1.8-2.3,2.8-3.4c0.9-1-0.1-0.5-0.5-0.6C237.1,345,236.9,344.8,237,344.5z"
	/>
<path class="st8" d="M350.8,349.6c-1-0.6-2.1-0.8-3.1,0c-1.1,0.9-0.8,2.1-0.4,3.3c0.6,1.7,2,2.5,3.4,3.2c0.1,0.1,0.2,0.1,0.1,0.2
	c0,0.1-0.1,0.1-0.1,0.1c-1-0.1-1.9-0.2-2.8,0.2c0.8-2.1-2.1-2.7-1.6-4.6c-1.1,0.2-1.5,1.2-2.3,1.5c-0.4,0.2-0.4,0-0.3-0.3
	c2.8-2.5,3-3.8,1.1-7.5c0.1-0.1,0.3-0.2,0.4,0c0.2,0.1,0.5,0.3,0.6,0.4c0.4,2.1,1.4,3.3,3.8,2.6C350.3,348.3,351,348.7,350.8,349.6
	L350.8,349.6z"/>
<path class="st9" d="M160.5,341.8c-1.2-2.9-0.3-5.9,2.5-8.2c1.7-1.4,3.6-2.3,5.9-3.3c-0.6,1.4-1.7,1.6-2.5,2c-2,1.1-3.9,2.4-5.1,4.5
	c-0.8,1.6-1,3.3-0.3,5C160.9,341.9,160.7,342,160.5,341.8z"/>
<path class="st10" d="M304.6,357.4c0.7,1.3,0.2,2.5-0.4,3.5c-1.1,1.7-1.3,3.6-1.1,5.5c0.1,0.4-0.1,0.5-0.5,0.4
	c-0.8-1.5-0.2-3.1,0-4.8c-1.1,0.3-2,0.4-2.9-0.2c0-0.3,0-0.5,0.4-0.3c2.9,0,3.6-0.5,4.1-3C304.5,358.2,304.1,357.7,304.6,357.4z"/>
<path class="st11" d="M216.4,351.8c-1.9,0.5-3.3,2-3.3,3.5c0,1.7,1.1,2.7,2.8,2.3c0.4-0.1,0.7-0.2,1.2,0c-0.9,0.9-1.9,1.3-3,0.6
	c-1.4-0.9-1.9-2.1-1.6-3.6c0.4-2,2-3.2,4.3-3.4C216.9,351.5,216.7,351.7,216.4,351.8z"/>
<path class="st12" d="M343.7,353c0.1,0.1,0.2,0.2,0.3,0.3c-1.5,1.4-3.3,1.3-5,0.6c-1.3-0.6-2.3-1.7-2.3-3.3c0-1-0.1-2.2,1.3-2.5l0,0
	c-0.8,1.7-1,3.4,0.6,4.7C340.2,354.1,342,353.9,343.7,353z"/>
<path class="st13" d="M301.5,344.1c0.2-1.1-1.3-0.5-1.4-1.5c2.6,0.2,5.1,0.1,5.9-3c0.5-0.7-0.5-1.7,0.6-2.2c0.6,2.8-0.7,4.6-3,6
	c-0.6,0.3-1.1,0.8-1.7,1.1C301.6,344.6,301.5,344.4,301.5,344.1z"/>
<path class="st14" d="M281.9,335.6c3,2.9,3.4,7.7,0.8,10.1C284.8,342.2,283.6,338.9,281.9,335.6z"/>
<path class="st15" d="M161.6,352.2c-0.9,0.6-1.5,1.5-1.8,2.5c-0.3,1,0,1.9,0.7,2.5c1.1,1,2.3,0.3,3.4-0.1c0.1-0.1,0.2-0.1,0.3,0
	c-1,1.5-2.3,1.8-3.8,0.9c-1.3-0.7-1.8-2.6-1.2-4.1c0.4-0.9,0.9-1.7,1.9-2.2C161.6,351.7,161.6,351.9,161.6,352.2z"/>
<path class="st16" d="M353.1,364.3c-2.1,3.8-5.6,5.1-9.6,5.8c3.7-1.2,7.1-2.8,9.2-6.2C353.1,363.8,353.3,363.9,353.1,364.3z"/>
<path class="st17" d="M237,344.5c0.2,0.1,0.3,0.2,0.5,0.4c-2.6,0.9-4,0.7-4.8-1c-0.9-1.8-0.4-3.8,1.4-4.9c0.1,0.1,0.4,0.1,0.4,0.3
	c-1.5,1.2-1.9,2.6-1.2,4.2C234,345.3,235.6,344.7,237,344.5z"/>
<path class="st18" d="M278.5,347c1.3,0.1,2.5-0.4,4.1-1c-1.8,1.9-3.4,3.5-4.9,5.1c-0.4,0.1-0.5,0-0.4-0.4c0.8-1,1.7-1.9,2.6-2.9
	c-0.7-0.2-1.2-0.3-1.8-0.5C278,346.9,278.2,346.8,278.5,347z"/>
<path class="st12" d="M214.5,335.8c1.7-2.9,4.6-4,7.6-5.1c-2.4,1.8-5.4,2.9-7.2,5.6C214.6,336.3,214.4,336.2,214.5,335.8z"/>
<path class="st19" d="M343.7,344.6c-2.8-0.8-5.5-0.4-8.2,0.1c-0.2-0.1-0.3-0.2-0.4-0.3c1-0.4,2-0.8,2.7-2.4c0.1,1,0.1,1.6,1.1,1.4
	c1.6-0.3,3.3-0.1,4.8,0.7c0.1,0.1,0.1,0.2,0.1,0.3C343.8,344.5,343.7,344.6,343.7,344.6z"/>
<path class="st19" d="M234.4,339.2c-0.1-0.1-0.3-0.2-0.4-0.3c0.9-0.5,1.9-0.5,2.8,0c0.9,0.5,1.1,1.3,0.7,2.3c-0.3,0.9-1,1.2-1.9,1.1
	c-0.4,0-0.8-0.3-0.8-0.8c0-0.6,0.4-0.8,1-0.9c0.4,0,1.1,1,1.2-0.2c0.1-0.7-0.5-1.1-1.2-1.2C235.3,339.2,234.8,339.2,234.4,339.2z"/>
<path class="st13" d="M220.5,364.5c0.3-1.1,0-2-1-2.5c-1.4-0.7-2.5-0.2-3.5,0.7c-0.3,0.1-0.5,0-0.3-0.4c0.8-1,1.9-1.7,3-2.4
	c0.2,0.2,0.2,0.4,0.1,0.6c0,0.6,0.5,0.5,0.9,0.7c1.7,0.8,2,2.1,1,3.8C220.4,364.9,220.3,364.7,220.5,364.5z"/>
<path class="st20" d="M201.5,356c-0.4,1.1-0.8,2.3-0.6,3.6c0.3,1.7,1.3,2.7,2.9,3.2c0,0.4-0.2,0.5-0.6,0.4c-3.2-1-4.1-4.4-2.1-7.6
	C201.4,355.6,201.4,355.8,201.5,356z"/>
<path class="st21" d="M233.9,359.4c-1.7-1.8-1.9-5-0.3-8.2c0.4,0,0.6,0.1,0.4,0.5c-0.7,2.5-1.7,5,0.3,7.4
	C234.4,359.3,234.3,359.5,233.9,359.4z"/>
<path class="st22" d="M218.3,351.5c3,1.2,3.9,4.3,2.1,7.1c-0.3,0-0.6,0-0.3-0.4c1-3,0.7-3.9-1.6-6
	C218.2,352,218.2,351.7,218.3,351.5L218.3,351.5z"/>
<path class="st12" d="M281,360.5c2.3,1,3.7,2.7,4.3,5.1c0.2,0.7,0.2,1.3-0.3,1.9c-0.4,0-0.6,0-0.4-0.5c0.2-3.1-1.8-4.8-4.1-6.2
	C280.6,360.6,280.8,360.6,281,360.5z"/>
<path class="st23" d="M171.6,369.4c-2.8,0.4-5.6,1-8.2-0.7c0-0.3,0-0.5,0.4-0.4c2,0.9,4.1,0.8,6.2,0.7
	C170.6,369,171.3,368.4,171.6,369.4z"/>
<path class="st6" d="M241.1,362.4c-1.5-1.5-3.8-1.1-5.6-2c0-0.4,0.1-0.5,0.5-0.4c1.5,0.2,3,0.3,4.3-0.7c0.2-0.1,0.4-0.1,0.6,0
	c-0.4,0.4-0.7,0.8-1.1,1.2C240.1,361.3,241.5,361.3,241.1,362.4L241.1,362.4z"/>
<path class="st16" d="M201.5,356c-0.1-0.1-0.2-0.3-0.4-0.4c0.6-0.8,1.2-1.5,1.9-2.3c-0.4-0.2-0.8-0.3-1.2-0.5
	c-0.2-0.2-0.2-0.3,0-0.5c1.4,0.2,2.7,0,4-0.5c0.4-0.2,0.5,0,0.5,0.4C204.4,353,202.8,354.3,201.5,356z"/>
<path class="st24" d="M320.1,334.9c0-1.3-1-1.7-1.9-1.9c-1.3-0.3-1.9,0.9-2.5,1.8c-0.2-0.1-0.2-0.3-0.3-0.4c1.1-2.4,2.9-2.8,4.8-1.1
	c0.8,0.8,1.2,1.6,0.3,2.5C319.8,335.7,320,335.3,320.1,334.9z"/>
<path class="st25" d="M330.3,335.1c1.6-2.4,3.9-3.9,6.5-4.8c-2,1.8-4.6,2.9-6.1,5.3C330.5,335.5,330.4,335.3,330.3,335.1z"/>
<path class="st26" d="M253.1,335.4c-0.5-2,0.2-3.6,1.8-3.8c0.8-0.1,1.6,0.1,1.5,1.1c0,0.7-0.4,1.1-1.1,0.7c-1.5-0.7-1.7-0.6-1.8,1.5
	C253.6,335.4,253.4,335.5,253.1,335.4z"/>
<path class="st12" d="M254.1,364.4c-2-2.3-1.9-4.9,0.4-8c0.2,0.1,0.3,0.2,0.3,0.3c-1.2,2.3-2.1,4.6-0.7,7.1
	C254.3,364,254.3,364.2,254.1,364.4z"/>
<path class="st13" d="M260.5,364.3c-1.5,1,0.4,1.6,0.3,2.7c-1.6-1.8-3.9-0.7-5.6-1.7c0-0.4,0.1-0.5,0.5-0.4c1.6,0.1,3.2,0.4,4.4-1
	C260.5,363.8,260.7,363.8,260.5,364.3z"/>
<path class="st27" d="M203.3,335.3c0.2-1.2-0.5-1.8-1.5-2.2c-1.3-0.5-1.9,0.5-2.6,1.2c-0.3,0-0.6,0-0.3-0.4c1-1.8,2-2.1,3.7-1.1
	c1.2,0.7,2.4,1.4,1.1,3C203.3,335.8,203.1,335.7,203.3,335.3z"/>
<path class="st12" d="M335.9,338.4c-0.7,0-1.5-0.1-2.1,0.6c0.1,0.1,0.1,0.3,0.2,0.4c0.4,0.3,1.4,0.3,0.9,1.2
	c-0.2,0.4-0.6,0.6-1.1,0.4c-0.7-0.4-1.1-0.8-0.9-1.6c0.3-1.3,1.6-1.8,3.5-1.3C336.3,338.3,336.1,338.3,335.9,338.4z"/>
<path class="st28" d="M183.2,338.9c1.1,0.5,1.2,1.3,0.8,2.3c-0.3,0.8-1,1.1-1.8,1.1c-0.5,0-1-0.2-1-0.9c0-0.7,0.4-0.8,1-0.8
	c0.4,0,0.7,0.8,1.1,0.1c0.3-0.7-0.3-1-0.6-1.4C182.8,339,183.1,339,183.2,338.9z"/>
<path class="st24" d="M202.3,345.6c0.9,0.1,1.4,0.8,1.8,1.5c0.3,0.5,0.4,1.1,0,1.6c-0.3,0.5-0.8,1-1.5,0.8c-0.4-0.1-0.8-0.5-0.7-1
	c0.2-1,1.1-0.7,1.8-0.8c-0.3-0.8-0.9-1.1-1.4-1.6c-0.1-0.1-0.2-0.2-0.2-0.3C202.1,345.8,202.1,345.7,202.3,345.6z"/>
<path class="st29" d="M225,369.4c-2.5,0.4-5,0.9-7.4-0.4c0-0.4,0.1-0.6,0.5-0.4c1.9,0.4,3.8,0.5,5.8,0.3
	C224.2,369,224.9,368.5,225,369.4z"/>
<path class="st7" d="M181.8,359.7c1.3,0.5,2.6,0.5,3.9,0.3c0.5-0.2,0.6,0.1,0.5,0.5c0.2,0.2,0.5,0.5,0.7,0.7
	c0.2,0.2,0.1,0.4-0.1,0.6c-1.8-0.8-3.9-0.6-5.5-1.7C181.3,359.7,181.4,359.5,181.8,359.7z"/>
<path class="st6" d="M237.4,352.8c1.4-0.6,2.7-0.3,3.7,0.8c1.1,1.3,1.4,3,0.7,4.7c-0.4,0-0.5-0.1-0.4-0.5c0.2-3.4-0.8-4.6-3.6-4.7
	C237.4,353.2,237.4,353.1,237.4,352.8z"/>
<path class="st18" d="M207.2,360.8c-0.1-1.2-0.1-1.2-1-2.1c-0.2,0.4-0.3,0.8-0.6,1.1c-0.4,0.4-0.9,0.3-1.3-0.1
	c-0.4-0.5-0.2-0.9,0.2-1.3c1.1-1,2.4-0.5,3.3,1.3C207.4,360,208.1,360.9,207.2,360.8z"/>
<path class="st30" d="M220.2,340.8c-1.4,0.6-2.2-0.2-2.5-1.3c-0.3-1.4,0.5-2.3,1.9-2.6c0.4-0.1,0.5,0,0.5,0.4
	c-0.9,0.3-1.8,0.7-1.6,1.8c0.1,0.6,0.2,1.7,1.3,0.8C220.4,340,220.4,340.4,220.2,340.8z"/>
<path class="st31" d="M304.9,353.7c-0.4,0.1-0.8,0.3-1.2,0.3c-1.7,0.1-0.2,0.7-0.2,1.1c0.1,0.4-0.1,0.5-0.4,0.4
	c-0.9-0.9-1.8-1.7-2.6-2.6c-0.2-0.4,0-0.5,0.4-0.4c1.1,0.9,2.4,0.8,3.7,0.7C304.8,353.2,304.9,353.3,304.9,353.7z"/>
<path class="st32" d="M259.8,342.9c-1.9-2-3.8-3.9-5.7-5.9c-0.1-0.4,0-0.4,0.4-0.4c1.9,2,4,3.7,5.6,5.9
	C260.3,342.9,260.1,343,259.8,342.9z"/>
<path class="st27" d="M278.4,368.3c-0.7-1.1-0.6-2.1,0.7-2.7c0.4-0.2,0.8-0.2,1.2,0.1c0.3,0.3,0.4,0.6,0.2,1
	c-0.2,0.4-0.6,0.7-1.1,0.5c-1-0.4-0.7,0.3-0.7,0.7C279,368.2,278.8,368.3,278.4,368.3z"/>
<path class="st13" d="M252.7,348.9c-0.3-1.4-0.6-2.9,0.9-3.8c1.2-0.7,2.4-0.9,3.5,0.3c0.1,0.2,0.1,0.4-0.1,0.5
	c-2.4-1.3-4-0.4-4.1,2.1C253.2,348.4,253.4,348.8,252.7,348.9z"/>
<path class="st24" d="M320.1,334.9c0.1,0.3,0.2,0.6,0.3,0.9c-0.3,0.5-0.8,0.7-1.4,0.7c-0.6,0-1.1-0.2-1.3-0.8
	c-0.2-0.5,0-0.9,0.3-1.2c0.5-0.4,1-0.3,1.4,0.3C319.7,335.1,319.9,335,320.1,334.9z"/>
<path class="st33" d="M324,359.7c-0.5-0.6-0.9-1.6-1.5,0c-0.1,0.4-0.6,0.4-1,0.3c-0.4-0.1-0.6-0.3-0.7-0.8c0-0.4,0.2-0.7,0.6-0.9
	c1.3-0.6,2.3-0.4,2.9,0.9C324.5,359.7,324.3,359.8,324,359.7z"/>
<path class="st34" d="M218,368.6c-0.2,0.1-0.3,0.2-0.5,0.4c-2.5-1.3-3.2-2.8-2.6-5.5c0.3,0,0.6,0,0.4,0.4
	C215.1,366.1,216.2,367.6,218,368.6z"/>
<path class="st35" d="M165.5,361.2c1.2,0.1,1.9,0.7,2.2,1.9c-0.1,0.1-0.3,0.1-0.4,0c-1.8-2-2.8-2-5.4,0.2c0.6-1.6,1.7-2.2,2.8-2.8
	C165.2,360.2,165,361.2,165.5,361.2z"/>
<path class="st8" d="M315.8,347.5c-0.3,2.4,1.1,3.7,2.9,4.8c0.1,0.2,0.1,0.3,0,0.5c-2.9-1-4-2.9-3.2-5.7
	C315.8,347,315.9,347.2,315.8,347.5z"/>
<path class="st36" d="M237,365.3c0,2.2,0.2,2.4,3.3,2.2c0.4-0.2,0.5,0,0.4,0.4c-0.9,0.4-1.9,0.7-2.8,0.3c-1.3-0.5-2.2-1.4-1.4-3
	C236.6,365.1,236.8,365.1,237,365.3z"/>
<path class="st24" d="M298.2,360.4c-0.7-1.2-0.3-2.2,0.7-3.1c0.3-0.3,0.8-0.3,1.2-0.1c0.3,0.1,0.4,0.4,0.4,0.8
	c0,0.6-0.4,0.8-0.9,0.7c-1.4-0.3-0.9,0.7-0.9,1.4C298.8,360.4,298.6,360.5,298.2,360.4z"/>
<path class="st11" d="M201.9,352.3c0,0.2,0,0.3,0,0.5c-2.9-1.1-3.9-2.9-3.2-5.7c0.7,0,0.4,0.4,0.3,0.8
	C198.8,350.1,200.2,351.3,201.9,352.3z"/>
<path class="st31" d="M322.4,364.2c-1-0.4-2-0.8-2.9-1.2c0-0.4,0.1-0.5,0.5-0.4c1.4,0.2,2.7,0.2,3.6-1c0.3-0.1,0.5,0,0.3,0.4
	c-0.1,0.8-1.4,0.9-1.1,1.8C322.9,364.2,322.8,364.4,322.4,364.2z"/>
<path class="st16" d="M318.7,352.8c0-0.2,0-0.3,0-0.5c1.4,0.2,2.7-0.1,4-0.5c0.4-0.2,0.5,0,0.5,0.3c-1.3,0.6-2.6,1.3-3.7,2.4l0,0
	C319.2,354,320.2,352.8,318.7,352.8z"/>
<path class="st13" d="M203.3,335.3c0.1,0.2,0.2,0.4,0.4,0.5c-0.3,0.6-0.8,0.7-1.4,0.7c-0.6,0-1.1-0.2-1.3-0.9c-0.2-0.5,0-1,0.5-1.2
	c0.7-0.3,1,0.1,1.3,0.6C202.9,335.2,203.2,335.2,203.3,335.3z"/>
<path class="st24" d="M183.5,365.3c-0.4,1.5,0.2,2.2,1.7,2.3c0.6,0,1.1,0,1.7-0.1c0.4-0.2,0.4,0,0.4,0.3c-0.9,0.7-2,0.6-3,0.3
	c-1.5-0.3-1.9-1.7-1.1-3.3C183.4,365,183.5,365.1,183.5,365.3z"/>
<path class="st37" d="M206.5,368.8c-1.2,0.7-2.2,0.2-3.2-0.6c-0.3-0.3-0.5-0.7-0.3-1.2c0.2-0.4,0.5-0.5,0.9-0.5
	c0.5,0.1,0.8,0.5,0.7,0.9c-0.4,1.5,0.9,0.7,1.4,1C206.2,368.5,206.4,368.5,206.5,368.8z"/>
<path class="st38" d="M164.3,357.1l-0.2,0c0,0-0.2,0-0.2,0c-0.1-0.3,0-0.7-0.4-0.7c-0.7,0-1.3-0.2-1.2-1c0.1-0.7,0.8-0.7,1.4-0.6
	c0.8,0.1,1.2,0.6,1.1,1.4C164.8,356.5,164.5,356.8,164.3,357.1z"/>
<path class="st36" d="M166,340.4c0.4-0.2,0.2-0.4,0.1-0.7c-0.2-0.5,0.1-0.8,0.5-1c0.5-0.2,0.9-0.1,1.1,0.4c0.2,0.4,0.2,0.9-0.1,1.2
	c-0.7,0.7-1.4,1.2-2.4,0.5C165.5,340.4,165.8,340.5,166,340.4z"/>
<path class="st16" d="M281,360.5c-0.1,0.1-0.3,0.2-0.4,0.4c-0.7-0.2-1.5-0.4-2.2-0.6c-0.1-0.2-0.1-0.4-0.2-0.6
	c2.3,0.4,3.6-0.7,4.7-2.2c0.1-0.2,0.2-0.2,0.3,0C283.2,359,281.3,359.2,281,360.5z"/>
<path class="st39" d="M186.2,360.5c-0.2-0.2-0.4-0.3-0.5-0.5c2.4-1.5,2.7-2.6,1.6-5.9c-0.2-0.4,0-0.4,0.4-0.4
	C189.3,356.4,188.9,358.3,186.2,360.5z"/>
<path class="st9" d="M318,356.4c-0.5,1.8-0.6,3.5,0.4,5.1c0.1,0.4,0,0.5-0.4,0.4c-1.5-1.9-1.5-3.9-0.3-6
	C318,356,318.2,356,318,356.4z"/>
<path class="st40" d="M282.9,355.3c-0.5-0.5-1-1.1-1.6-0.1c-0.2,0.4-0.8,0.5-1.1,0.2c-0.2-0.1-0.3-0.5-0.3-0.8
	c0.1-0.6,0.5-0.8,1-0.8c0.9,0,1.9,0,2.3,1.1C283.1,355.1,283,355.2,282.9,355.3z"/>
<path class="st40" d="M165,351.5c1.9,0.6,2.6,2,2.9,3.8c-0.4,0.4,0.4,1.3-0.6,1.5c-0.1-3.3-0.9-4.4-3.8-4.9
	C163.8,351,164.4,351.4,165,351.5z"/>
<path class="st16" d="M257.9,353c-1-0.9-2.7-0.4-3.6-2.3c1.6,0.9,2.9,1.3,4.3,1.2c0.4-0.1,0.9-0.3,0.8,0.4c-0.4,0.3-0.8,0.7-1.1,1
	C258.1,353.3,257.9,353.2,257.9,353z"/>
<path class="st41" d="M236.3,331.7c-0.2,0.1-0.3,0.2-0.5,0.3c-0.9-0.3-1.8-0.7-2.8-1c-0.9-0.3-1.9-0.5-2.7-1.1
	C232.6,329.7,234.4,330.8,236.3,331.7z"/>
<path class="st40" d="M182.8,356.3c0.4-0.1,0.7-0.1,0.9-0.6c0.1-0.5,0.6-0.9,1.3-0.6c0.4,0.2,0.6,0.5,0.5,0.9
	c-0.1,0.6-0.5,1-1.1,1.1c-0.6,0.1-1.2,0-1.6-0.6L182.8,356.3z"/>
<path class="st42" d="M203.2,363.2c0.2-0.1,0.4-0.3,0.6-0.4c1.5,0.2,2.5-0.4,3.3-1.6c0.2,0,0.3,0.2,0.3,0.4
	c-0.2,0.9-1.5,1.1-1.4,2.2c0.1,0.4,0,0.6-0.4,0.4C204.8,363.9,204,363.5,203.2,363.2z"/>
<path class="st28" d="M340.3,347.5c0.3,0.2,0.7,0.3,0.9,0.6c0.5,0.6,0.8,1.2,0.2,2c-0.3,0.3-0.6,0.4-1,0.2c-0.9-0.6-0.2-1.3,0.1-1.8
	c-0.5-0.4-1.1-0.3-1.6-0.3C339.1,347.1,339.9,347.9,340.3,347.5z"/>
<path class="st27" d="M217.7,357.2c-0.7,0,0.4-1.3-0.8-0.9c-0.6,0.2-1.1-0.1-1.2-0.7c-0.1-0.5,0.4-0.8,0.8-0.8
	c0.7-0.1,1.4,0,1.6,0.8C218.4,356.3,218.2,356.8,217.7,357.2z"/>
<path class="st19" d="M275.5,357.8c-0.8-2-0.5-3.8,0.7-5.6c0.4,0,0.6,0,0.4,0.5c-0.6,1.5-1,3-0.7,4.6
	C276,357.7,275.9,357.9,275.5,357.8z"/>
<path class="st34" d="M208.2,349.6c0-1.5-0.1-3-1.1-4.6c1.8,1.2,2.2,2.8,1.5,5.1C208.2,350,208,350,208.2,349.6z"/>
<path class="st13" d="M237,365.3c-0.2,0-0.3,0-0.5,0c0.1-0.3,0.2-0.6,0.4-0.8c0.7-0.5,1.5-0.6,2.2-0.1c0.3,0.2,0.3,0.7,0.1,1
	c-0.7,1-1.2,0.1-1.8-0.2C237.2,365.3,237.1,365.3,237,365.3z"/>
<path class="st13" d="M261.9,368c-0.1,0.7-0.5,1.3-1.2,1.4c-0.6,0.1-0.9-0.3-1-0.9c0-1.1,1-1,1.6-1.2
	C261.8,367.1,261.8,367.6,261.9,368z"/>
<path class="st31" d="M320.9,347.4c0.4,0.6,0.1,1.2-0.3,1.7c-0.3,0.4-0.8,0.7-1.3,0.5c-0.4-0.2-0.8-0.5-0.6-1
	c0.2-0.5,0.6-0.8,1.1-0.7c0.3,0,0.6,0.2,0.6-0.4C320.6,347.3,320.7,347.3,320.9,347.4z"/>
<path class="st35" d="M236.6,356.3c0.1-0.1,0.2-0.1,0.3-0.2c0.3-0.7,0.5-1.5,1.5-1c0.5,0.2,0.5,0.7,0.3,1.1c-0.4,0.9-1.1,1.1-2,0.7
	c-0.3-0.1-0.5-0.3-0.7-0.5C236.2,356.2,236.4,356.2,236.6,356.3z"/>
<path class="st19" d="M306.5,336.5c-0.5,0.3-0.8,0-1-0.4c-0.8-1.6-2.2-2.6-3.6-3.6c0-0.3,0-0.5,0.4-0.3
	C304.3,333,305.6,334.6,306.5,336.5L306.5,336.5z"/>
<path class="st43" d="M187.3,367.9c-0.1-0.1-0.3-0.2-0.4-0.3c1.7-1.1,1.8-2.7,1.2-4.5c0.1-0.2,0.2-0.3,0.3-0.4
	C189.6,364.9,189.2,366.6,187.3,367.9z"/>
<path class="st40" d="M166.5,365.5c-0.4,0.5-0.9,0.6-1.5,0.3c-0.5-0.3-1-0.6-1-1.2c0-0.4,0.3-0.7,0.7-0.7c0.7-0.1,1,0.3,1.1,0.9
	c0,0.5,0.4,0.3,0.7,0.3c0.1,0.1,0.2,0.2,0.1,0.3C166.5,365.4,166.5,365.5,166.5,365.5z"/>
<path class="st44" d="M300.8,337.4c0.2,0.1,0.4,0.1,0.5,0.2c0.5,0.5,1.2,0.9,0.9,1.8c-0.2,0.4-0.6,0.6-1.1,0.5
	c-1.1-0.4-0.6-1.1-0.4-1.8c0-0.1-0.2-0.3-0.3-0.4C300.5,337.6,300.6,337.5,300.8,337.4z"/>
<path class="st45" d="M322.4,369c-0.9,0.2-1.6-0.2-2.2-0.7c-0.4-0.4-0.6-0.8-0.4-1.3c0.2-0.4,0.5-0.6,0.9-0.5
	c0.6,0.1,0.7,0.6,0.6,1.1c-0.1,0.3,0,0.6,0.3,0.8C321.9,368.6,322.6,368.3,322.4,369z"/>
<path class="st28" d="M329.9,340.7c0.6,1.8,1.9,2.8,3.5,3.6c0,0.3-0.3,0.3-0.5,0.4c-1.7-0.5-2.8-1.6-3.5-3.2
	C329.4,341.1,329.2,340.7,329.9,340.7z"/>
<path class="st46" d="M347.5,360.7c0.6,0.2,1.1,0.1,1.3-0.5c0.2-0.5,0.6-0.6,1-0.4c0.3,0.1,0.5,0.4,0.4,0.7c-0.1,0.4-0.3,0.9-0.7,1
	c-0.7,0.2-1.5,0.2-2.1-0.3C347.3,361,347.3,360.9,347.5,360.7z"/>
<path class="st47" d="M322.4,369c-0.2-0.2-0.5-0.4-0.7-0.6c2.5-0.2,2.8-0.7,2.1-3c0.2-0.2,0.3-0.2,0.5,0
	C325.4,367.6,324.9,368.5,322.4,369z"/>
<path class="st28" d="M305.6,348.5c-0.4,0-0.7-0.1-0.8,0.5c-0.1,0.5-0.3,1.2-1.1,0.9c-0.3-0.1-0.6-0.3-0.7-0.5
	c-0.2-0.7,0.3-1,0.8-1.3c0.2-0.1,0.5-0.2,0.7-0.3C304.8,348.2,305.7,347.6,305.6,348.5z"/>
<path class="st18" d="M304.9,353.7c-0.2-0.1-0.3-0.3-0.5-0.4c1.6-0.7,2.8-1.6,2.4-3.7c0.1-0.2,0.1-0.4,0.4-0.5
	C308,351.4,307.4,352.6,304.9,353.7z"/>
<path class="st9" d="M353.4,362.3c0.1-1.5-0.2-2.9-0.4-4.4c1.2,1.6,1.5,3.3,0.7,5.2C353,363,353.3,362.6,353.4,362.3z"/>
<path class="st40" d="M306.4,368c0-0.5,0.5-1,0-1.5c-0.3-0.4,0-0.8,0.4-1.1c0.4-0.2,0.7-0.1,1,0.2c0.3,0.4,0.3,0.8,0.1,1.2
	C307.6,367.4,307.1,367.8,306.4,368L306.4,368z"/>
<path class="st47" d="M183.5,365.3c-0.1-0.1-0.2-0.2-0.3-0.4c0.2-0.8,0.9-0.8,1.5-0.8c0.5,0,0.9,0.1,1.1,0.6c0.1,0.4,0,0.7-0.3,1
	c-0.4,0.4-0.8,0.1-1.1-0.2C184.1,365.3,183.9,365.1,183.5,365.3z"/>
<path class="st7" d="M258.3,359c-0.2,0.3-0.6,0.5-0.3,0.9c0.3,0.6,0,1-0.5,1.2c-0.4,0.2-0.7,0-1-0.3c-0.4-0.5,0-0.9,0.2-1.3
	c0.2-0.5,0.6-0.8,1.1-0.9C258.1,358.8,258.3,358.8,258.3,359z"/>
<path class="st48" d="M257.1,345.9c0-0.2,0-0.4,0.1-0.5c0.7,0.4,0.8,1.1,0.7,1.8c0,0.5-0.1,1-0.7,1.1c-0.3,0.1-0.6,0.1-0.8-0.2
	c-0.3-0.5-0.2-1,0.3-1.3C257,346.6,257.2,346.3,257.1,345.9z"/>
<path class="st43" d="M278.5,347c-0.2,0.1-0.3,0.2-0.5,0.3c-1.6-0.5-2.6-1.6-2.9-3.3c0.4-0.5-0.4-1.5,0.6-1.8
	C275.4,344.5,276.3,346.1,278.5,347z"/>
<path class="st49" d="M219.8,365.6c-0.6,0.5-1.2,0.3-1.7,0c-0.5-0.4-1-0.9-0.4-1.5c0.5-0.5,1.1-0.4,1.4,0.4
	C219.1,365,219.9,365,219.8,365.6z"/>
<path class="st49" d="M249.7,367.3c-0.1,1.5-0.8,2.4-2.7,2.1c1.2-0.9,1.8-2,2.6-3C249.9,366.6,249.9,366.9,249.7,367.3z"/>
<path class="st36" d="M166,340.4c-0.2,0.1-0.5,0.2-0.7,0.3c-1.5-1.3-1.5-1.9,0-3.4c0.4-0.2,0.5,0,0.4,0.4
	C164.7,338.7,164.8,339.6,166,340.4z"/>
<path class="st50" d="M261.3,348.9c-0.1-1.2-0.1-2.4-0.2-3.6c-0.2-0.4,0-0.5,0.4-0.5c0.7,1.6,0.8,3.3,0.1,4.9
	C261.3,349.5,261.5,349.2,261.3,348.9z"/>
<path class="st19" d="M351.2,351.1c-0.1,0.1-0.2,0.3-0.3,0.4c-0.6,0.6-1.3,0.9-1.9,0.1c-0.3-0.3-0.7-0.9-0.2-1.3
	c0.8-0.6,1.3,0.1,1.9,0.6C350.9,351,351.1,351,351.2,351.1z"/>
<path class="st9" d="M300.2,346.3c-0.8,1.3-0.5,2.9-0.9,4.3c-0.8-1.5-0.4-2.9,0.4-4.3C299.9,346.1,300.1,346.2,300.2,346.3z"/>
<path class="st51" d="M320.9,342.6c-1.1-0.8-2.6-1.1-3.3-2.5l0-0.1c1.4,0.5,2.6,1.3,3.7,2.2C321.4,342.5,321.3,342.7,320.9,342.6z"
	/>
<path class="st52" d="M202.3,340.7c1.3,0.7,2.6,1.4,3.3,2.9c-1.2-0.8-2.4-1.7-3.7-2.5C201.9,340.9,202.1,340.8,202.3,340.7z"/>
<path class="st46" d="M278.4,331.8c1.5,0.6,2.6,1.6,3.2,3.2c-1.2-1-2.3-2-3.5-2.9C278.1,332,278.2,331.9,278.4,331.8z"/>
<path class="st41" d="M325.5,349.7c0,0.1,0,0.2-0.1,0.3c-0.4,0-0.5-0.1-0.4-0.5c-0.1-1.6-0.1-3.1-1-4.5c1,0.4,1.4,1.2,1.4,2.2
	C325.6,348.1,325.7,348.9,325.5,349.7z"/>
<path class="st53" d="M220.2,340.8c0-0.3,0-0.6-0.3-0.8c-0.4-0.6-0.3-1.1,0.4-1.3c0.4-0.1,0.9,0,1,0.5
	C221.5,340.1,221.1,340.6,220.2,340.8z"/>
<path class="st54" d="M180.1,331c-1.1-0.3-2.2-0.6-3.3-0.9c1.4-0.9,2.6,0.1,3.8,0.5C180.6,331,180.6,331.2,180.1,331z"/>
<path class="st55" d="M302.6,366.8c0.2-0.1,0.3-0.3,0.5-0.4c0.8,1.3,2.3,1,3.4,1.6c0,0,0,0,0,0C304.8,368.8,303.6,368.2,302.6,366.8
	z"/>
<path class="st50" d="M260.5,364.3c-0.1-0.1-0.2-0.3-0.4-0.4c0.9-1.1,0.5-2.6,1.1-3.8l0,0C262,361.7,261.6,363,260.5,364.3z"/>
<path class="st56" d="M329.9,340.7c-0.4,0.1-0.3,0.5-0.4,0.8c-0.5-1.5-0.5-3.1,0-4.6c0.4,0.3,0,0.8,0.4,1.1
	C329.9,338.9,329.9,339.8,329.9,340.7z"/>
<path class="st17" d="M168.4,342.2c0.7-1,1.2-2.1,1.1-3.4c0.1-0.2,0.1-0.4,0.4-0.5c0.4,1.5,0.4,2.9-1,3.9
	C168.7,342.3,168.5,342.3,168.4,342.2z"/>
<path class="st57" d="M296.7,330.6c-1.2,0.1-2.4-0.1-3.5-0.6c1.7-0.1,3.4-0.4,5.1,0.2C297.8,330.7,297.2,330.2,296.7,330.6z"/>
<path class="st58" d="M236.6,356.3c-0.2,0-0.4,0-0.6,0.1c-1.1-1.7-0.9-2.4,1.3-3.6c0.1,0.1,0.3,0.2,0.4,0.3
	C236.7,353.9,235.3,354.6,236.6,356.3z"/>
<path class="st59" d="M257.9,353c0.1,0.1,0.2,0.2,0.4,0.3c-1.1,1.1-2.3,2.3-3.4,3.4c-0.1-0.1-0.2-0.2-0.3-0.3
	C255.4,355,256.5,353.9,257.9,353z"/>
<path class="st43" d="M163.9,368.3c-0.1,0.1-0.3,0.2-0.4,0.4c-1-0.5-1.8-1.3-1.9-2.5c-0.1-0.4-0.3-0.8,0.4-0.8
	C162.1,366.6,163,367.4,163.9,368.3z"/>
<path class="st6" d="M198.9,333.9c0.1,0.1,0.2,0.3,0.3,0.4c-0.6,1.4-0.1,2.8,0.4,4.1c0.2,0.4,0,0.4-0.3,0.4
	C198.3,337.3,197.9,335.7,198.9,333.9z"/>
<path class="st60" d="M214.5,335.8c0.1,0.1,0.3,0.3,0.4,0.4c-0.7,1.4-1,2.9-0.8,4.5c-1.1-0.5-0.1-1.6-0.6-2.2
	C213.6,337.5,213.9,336.6,214.5,335.8z"/>
<path class="st34" d="M347.5,360.7c0,0.2,0,0.3,0,0.5c-1.9-1.5-2-2.3-0.4-4.2C346.8,358.4,346.3,359.7,347.5,360.7z"/>
<path class="st12" d="M241,362.4c1.4,0.3,1.7,1.1,1.2,3.4C241.6,364.6,242,363.3,241,362.4C241.1,362.4,241,362.4,241,362.4z"/>
<path class="st26" d="M279.9,340.7c0.6,0.4,1,0.9,0.5,1.6c-0.2,0.3-0.6,0.4-1,0.2c-0.8-0.4-0.4-1-0.2-1.5
	C279.3,340.8,279.5,340.5,279.9,340.7z"/>
<path class="st61" d="M261.3,348.9c0.1,0.3,0.2,0.5,0.3,0.8c-0.3,1.3-1.3,1.9-2.3,2.6c-0.2-0.3-0.5-0.4-0.8-0.4
	C260,351.4,260.8,350.3,261.3,348.9z"/>
<path class="st34" d="M279.9,340.7c-0.2,0.1-0.4,0.2-0.7,0.4c-0.8-1-1.7-0.8-2.7-0.3l0,0C277.1,339.2,278.1,339.1,279.9,340.7z"/>
<path class="st12" d="M195.9,368c-0.7,1.2-0.7,1.2-2.1,1.4c0.6-0.7,1.2-1.4,1.7-2.1C196.3,367.2,196.1,367.6,195.9,368z"/>
<path class="st62" d="M198.9,347.9c-0.1-0.3-0.2-0.5-0.3-0.8c0.3-0.9,0.9-1.4,1.8-1.5c0.6,0.3,1.2,0,1.8,0.2c0,0.1,0,0.3,0,0.4
	C200.8,346.1,199.5,346.2,198.9,347.9z"/>
<path class="st63" d="M182.8,344.8c0.1,0.1,0.3,0.2,0.4,0.4c-1.4,0.4-2.8,0.6-3.8-1c-0.2-0.4,0-0.4,0.3-0.4
	C180.5,344.9,181.6,344.8,182.8,344.8z"/>
<path class="st64" d="M217.2,344c-1.4-0.2-2.6-0.8-3.3-2.2c0.1-0.2,0.1-0.4,0.3-0.5c0.6,1.3,1.9,1.7,2.9,2.3
	c0.1,0.1,0.2,0.1,0.1,0.2C217.3,343.9,217.2,344,217.2,344z"/>
<path class="st62" d="M317.6,340c0,0,0,0.1,0,0.1c-1.4-0.4-1.9-1.5-2.2-2.8c0.1-0.1,0.1-0.4,0.4-0.4
	C316.4,337.9,317,338.9,317.6,340z"/>
<path class="st65" d="M165,351.5c-0.5,0.1-1.1-0.1-1.5,0.3c-0.6,0.1-1.3,0.3-1.9,0.4c-0.1-0.1-0.3-0.2-0.4-0.4
	C162.4,350.9,163.6,350.9,165,351.5z"/>
<path class="st21" d="M275.4,331.3c-1-0.1-2-0.2-3.1-0.3c1.3-0.4,2.6-0.6,3.9,0C276.1,331.3,275.7,331.1,275.4,331.3z"/>
<path class="st28" d="M179.8,343.7c-0.1,0.1-0.2,0.3-0.3,0.4c-1-1.1-0.8-2.3-0.4-3.5c0.4,0.2,0.2,0.6,0.4,0.8
	C179.5,342.2,179.7,342.9,179.8,343.7z"/>
<path class="st11" d="M335.9,338.4c0.2-0.1,0.3-0.2,0.5-0.4c1.1,0.3,1.6,1.1,1.8,2.2c0.1,0.4,0,0.5-0.4,0.4
	C337.6,339.5,336.8,338.9,335.9,338.4z"/>
<path class="st28" d="M210.8,366.3c0.7,1.1,1.4,1.6,1.5,2.9C211.1,368.6,210.7,367.9,210.8,366.3z"/>
<path class="st37" d="M206.5,368.8c-0.2-0.1-0.3-0.2-0.5-0.4c1.2-0.3,1.5-1.1,1.4-2.2c-0.1-0.4,0-0.5,0.4-0.5
	C208.3,367.1,208.2,368.3,206.5,368.8z"/>
<path class="st43" d="M234,351.6c-0.1-0.2-0.3-0.3-0.4-0.5c0.3-0.9,0.7-1.7,1.4-2.3c0.1,0.1,0.3,0.3,0.4,0.4
	C235,350.1,234.5,350.9,234,351.6z"/>
<path class="st54" d="M275.7,342.2c-0.6,0.5,0,1.4-0.6,1.8c-0.1-1.3-0.8-3,1.5-3.3c0,0,0,0,0,0C276.3,341.2,276,341.7,275.7,342.2z"
	/>
<path class="st66" d="M275.5,357.8c0.1-0.2,0.2-0.3,0.4-0.5c0.5,0.9,1.2,1.7,2.2,2.4C276.7,359.7,276.1,358.8,275.5,357.8z"/>
<path class="st67" d="M315.8,347.5c-0.1-0.2-0.2-0.3-0.4-0.5c0.3-0.9,0.9-1.4,1.8-1.5c0.6,0.3,1.2,0,1.8,0.2
	c0.1,0.1,0.1,0.2,0.1,0.3c0,0.1,0,0.2-0.1,0.2C317.7,346.1,316.5,346.1,315.8,347.5z"/>
<path class="st54" d="M182.8,356.3c0,0-0.1,0.2-0.1,0.2c-1.2-0.8-1.2-1.7-0.3-2.7c0.4-0.1,0.5,0.1,0.4,0.4
	C182.4,354.9,182.6,355.6,182.8,356.3z"/>
<path class="st50" d="M325,349.5c0.1,0.2,0.2,0.3,0.4,0.5c-0.4,1-1.3,1.7-2.2,2.2c-0.2-0.1-0.3-0.2-0.5-0.3
	C323.6,351.2,324.5,350.6,325,349.5z"/>
<path class="st43" d="M300.2,346.3c-0.2,0-0.3,0-0.5,0c0.4-0.9,1-1.7,1.8-2.2c0.1,0.1,0.3,0.3,0.4,0.4
	C301.4,345.1,300.8,345.7,300.2,346.3z"/>
<path class="st66" d="M165.5,361.2c-0.5,0-0.6-0.5-0.9-0.7c0.6-0.6,1.2-1.3,1.9-1.9c0.2,0,0.3,0.3,0.4,0.4
	C166.6,359.8,165.3,360,165.5,361.2z"/>
<path class="st17" d="M208.2,349.6c0.1,0.2,0.3,0.3,0.4,0.5c-0.5,1-1.3,1.7-2.2,2.2c-0.2-0.1-0.3-0.2-0.5-0.4
	C206.8,351.2,207.7,350.6,208.2,349.6z"/>
<path class="st68" d="M223.2,338c0.6,1,0.5,2.1,0,3.1c-0.3-0.2-0.1-0.6-0.4-0.8c0-0.5,0-1,0-1.6C223.1,338.6,222.8,338.2,223.2,338z
	"/>
<path class="st20" d="M307.2,349.2c-0.1,0.2-0.2,0.3-0.4,0.5c-0.4-0.4-0.8-0.8-1.2-1.1c-0.4-0.2-0.7-0.4-1.1-0.7
	C305.8,347.6,306.6,348.1,307.2,349.2z"/>
<path class="st69" d="M302.3,332.1c-0.1,0.1-0.3,0.2-0.4,0.3c-0.9-0.5-1.8-0.9-2.7-1.4c0.1-0.2,0.2-0.3,0.4-0.3
	C300.6,331,301.6,331.4,302.3,332.1z"/>
<path class="st70" d="M185.9,334.7c-0.6-0.6-1.3-1.2-1.9-1.9c-0.1-0.4,0-0.5,0.4-0.4c0.8,0.5,1.4,1.1,1.9,1.8
	C186.4,334.7,186.2,334.8,185.9,334.7z"/>
<path class="st71" d="M261.6,344.8c-0.1,0.2-0.3,0.3-0.4,0.5c-0.5-0.8-0.9-1.6-1.4-2.4c0.1-0.1,0.2-0.2,0.3-0.4
	C260.8,343.2,261.2,344,261.6,344.8z"/>
<path class="st17" d="M323.9,362c-0.1-0.1-0.2-0.2-0.3-0.4c0.3-0.6,0.4-1.2,0.4-1.9c0.1-0.1,0.2-0.3,0.4-0.4
	C325,360.3,324.8,361.2,323.9,362z"/>
<path class="st24" d="M329.9,338c-0.5-0.2-0.3-0.7-0.4-1.1c0.1-0.7,0.4-1.3,0.8-1.8c0.1,0.2,0.2,0.3,0.4,0.5
	C330.4,336.4,330.1,337.2,329.9,338z"/>
<path class="st52" d="M181.8,359.7c-0.1,0.1-0.3,0.2-0.4,0.3c-0.8-0.6-1.9-0.9-1.6-2.2c0,0,0,0,0,0
	C180.4,358.5,181.1,359.1,181.8,359.7z"/>
<path class="st11" d="M166.5,365.5c0-0.1,0-0.3,0-0.4c0.6-0.5,0.8-1.2,0.8-2c0.1,0,0.3,0,0.4,0C168.3,364.4,167.6,365,166.5,365.5z"
	/>
<path class="st72" d="M222,342.2c-0.1,1.1-0.8,1.2-2.1,1.4C220.7,342.8,221.2,342.3,222,342.2L222,342.2z"/>
<path class="st30" d="M185.9,334.7c0.1-0.1,0.2-0.3,0.4-0.4c0.6,0.6,1,1.3,1,2.4C186.3,336.2,186.2,335.3,185.9,334.7z"/>
<path class="st73" d="M184.4,332.5c-0.1,0.1-0.3,0.3-0.4,0.4c-0.6-0.4-1.5-0.5-1.8-1.2l0-0.1C183.1,331.4,183.7,331.9,184.4,332.5z"
	/>
<path class="st74" d="M320.9,342.6c0.1-0.1,0.3-0.3,0.4-0.4c0.7,0.4,1.4,0.9,1.5,1.9C322.2,343.6,321.6,343.1,320.9,342.6z"/>
<path class="st11" d="M169.9,338.3c-0.1,0.2-0.3,0.3-0.4,0.5c-0.3-1-1-1.4-1.9-1.5c-0.1-0.1-0.1-0.1-0.1-0.2c0-0.1,0.1-0.1,0.1-0.1
	C168.6,336.9,169.6,337,169.9,338.3z"/>
<path class="st75" d="M298.2,360.4c0.1-0.2,0.3-0.3,0.4-0.5c0.5,0.5,1,1.1,1.4,1.6c-0.1,0.1-0.3,0.2-0.4,0.3
	C299,361.6,298.5,361.2,298.2,360.4z"/>
<path class="st48" d="M275.4,331.3c0.3-0.1,0.5-0.2,0.8-0.4c0.8,0.1,1.4,0.5,2.1,0.9c-0.1,0.1-0.2,0.2-0.4,0.3
	C277.2,331.8,276.3,331.6,275.4,331.3z"/>
<path class="st54" d="M207.8,365.7c-0.1,0.2-0.2,0.3-0.4,0.5c-0.4-0.8-1.1-1.4-1.8-2c0.1-0.1,0.3-0.3,0.4-0.4
	C206.7,364.3,207.4,364.9,207.8,365.7z"/>
<path class="st21" d="M160.5,341.8c0.2,0,0.3,0,0.5,0c0.6,0.5,1.1,1,1.7,1.6C161.6,343.3,160.9,342.7,160.5,341.8z"/>
<path class="st64" d="M214.2,341.3c-0.1,0.2-0.2,0.3-0.3,0.5c-0.6-1.1-0.6-2.2-0.4-3.3c0.7,0.6,0,1.6,0.6,2.2
	C214.2,340.9,214.2,341.1,214.2,341.3z"/>
<path class="st69" d="M284.7,367.1c0.1,0.2,0.3,0.3,0.4,0.5c-0.3,0.6-0.4,1.3-1.4,1.4C283.7,368.1,284.3,367.7,284.7,367.1z"/>
<path class="st76" d="M220.1,358.2c0.1,0.1,0.2,0.3,0.3,0.4c-0.4,0.8-1,1.5-1.8,1.9c0-0.2,0-0.4-0.1-0.6
	C219.1,359.4,219.6,358.8,220.1,358.2z"/>
<path class="st5" d="M183.2,338.9c-0.1,0.1-0.3,0.2-0.4,0.3c-0.7,0-1.4,0-2.2,0.1c-0.1-0.1-0.1-0.2-0.1-0.3c0-0.1,0.1-0.1,0.1-0.1
	C181.5,338.4,182.3,338.4,183.2,338.9z"/>
<path class="st77" d="M167.6,336.9c0,0.1,0,0.2,0,0.3c-0.6,0.1-1.3,0.3-1.9,0.4c-0.1-0.1-0.3-0.3-0.4-0.4
	C166,336.9,166.6,336.1,167.6,336.9z"/>
<path class="st32" d="M299.6,330.7c-0.1,0.1-0.3,0.2-0.4,0.3c-0.9-0.2-1.7-0.3-2.6-0.5c0.4-0.5,1-0.2,1.5-0.3
	C298.7,330.4,299.2,330.5,299.6,330.7z"/>
<path class="st78" d="M161.9,365.3c-0.3,0.2-0.3,0.5-0.4,0.8c-0.3-0.8-0.5-1.5,0-2.4C162.2,364.3,161.9,364.9,161.9,365.3z"/>
<path class="st17" d="M240.7,367.9c-0.1-0.1-0.3-0.2-0.4-0.4c0.5-0.5,1.1-0.9,2-1.7C242,367.1,241.5,367.6,240.7,367.9z"/>
<path class="st79" d="M180.6,338.9c0,0.1,0,0.3,0,0.4c-0.6,0.6-1.2,1.2-1.2,2.1c-0.1-0.3-0.2-0.6-0.4-0.8
	C179.2,339.7,179.8,339.2,180.6,338.9z"/>
<path class="st41" d="M319.1,346.2c0-0.1,0-0.3,0-0.4c0-0.1,0-0.1,0-0.2c1,0.2,1.5,0.9,1.8,1.8c-0.2,0-0.3,0-0.5,0
	C320,347.1,319.5,346.6,319.1,346.2z"/>
<path class="st80" d="M343.7,344.6c0-0.2,0-0.3,0-0.5c0.7,0.2,1.4,0.5,1.6,1.4c-0.1,0-0.3,0-0.4,0
	C344.5,345.2,344.1,344.9,343.7,344.6z"/>
<path class="st81" d="M217.2,344c0-0.1,0-0.2,0-0.3c0.8-0.1,1.6-0.1,2.8-0.2C218.9,344.3,218,344,217.2,344z"/>
<path class="st82" d="M318,362c0.1-0.1,0.3-0.3,0.4-0.4c0.5,0.4,1.1,0.7,1.6,1.1c-0.2,0.1-0.3,0.3-0.5,0.4
	C318.8,362.9,318.3,362.6,318,362z"/>
<path class="st34" d="M187.7,353.8c-0.1,0.1-0.2,0.3-0.4,0.4c-0.5-0.4-1-0.8-1.5-1.1c0.1-0.2,0.2-0.3,0.4-0.3
	C186.8,352.9,187.5,353,187.7,353.8z"/>
<path class="st73" d="M252.7,348.9c0.1-0.3,0.2-0.5,0.3-0.8c0.3,0.8,0.6,1.5,1,2.5C253.1,350.2,252.9,349.5,252.7,348.9z"/>
<path class="st19" d="M306.7,337.3c-0.7,0.6,0,1.6-0.6,2.2c0.2-1-0.5-2.1,0.4-3.1c0,0,0,0,0,0C306.6,336.8,306.6,337.1,306.7,337.3z
	"/>
<path class="st48" d="M223.2,338c-0.1,0.3-0.2,0.5-0.3,0.8c-0.2-0.9-0.8-1.3-1.6-1.5c-0.1-0.4,0-0.5,0.4-0.4
	C222.5,337,222.9,337.4,223.2,338z"/>
<path class="st22" d="M318,356.4c-0.1-0.1-0.3-0.3-0.4-0.4c0.5-0.7,0.6-1.8,1.9-1.4c0,0,0,0,0,0C319,355.2,318.5,355.8,318,356.4z"
	/>
<path class="st83" d="M236,360c-0.2,0.1-0.3,0.3-0.5,0.4c-0.6-0.2-1.2-0.5-1.6-1c0.1-0.1,0.3-0.2,0.4-0.3
	C234.9,359.4,235.4,359.7,236,360z"/>
<path class="st74" d="M254.5,336.6c-0.1,0.1-0.2,0.3-0.4,0.4c-0.6-0.4-0.8-0.9-1-1.6c0.1-0.1,0.2-0.3,0.4-0.4
	C253.8,335.5,254.1,336.1,254.5,336.6z"/>
<path class="st84" d="M260.1,358.7c0.7,0.2,1.1,0.6,1.1,1.4c0,0,0,0,0,0c-0.8,0.1-1.1-0.6-1.6-1
	C259.7,358.8,259.9,358.8,260.1,358.7z"/>
<path class="st13" d="M167.2,356.7c0.2-0.5,0.4-1,0.6-1.5c0.2,0.9,0.1,1.8-0.4,2.6c-0.4,0-0.5-0.1-0.4-0.5
	C167.1,357.1,167.2,356.9,167.2,356.7z"/>
<path class="st83" d="M303,355.6c0.1-0.1,0.3-0.3,0.4-0.4c0.5,0.4,0.8,1,1,1.6c-0.1,0.2-0.1,0.4-0.4,0.4
	C303.7,356.7,303.4,356.2,303,355.6z"/>
<path class="st85" d="M260.1,358.7c-0.1,0.1-0.3,0.2-0.4,0.4c-0.4,0-0.9,0-1.3,0c-0.1-0.1-0.3-0.2-0.4-0.4
	C258.6,358.2,259.3,358.4,260.1,358.7z"/>
<path class="st86" d="M337.8,340.7c0.1-0.1,0.3-0.3,0.4-0.4c0.4,0.7,0.5,1.3-0.1,2.1C337.6,341.7,337.8,341.2,337.8,340.7z"/>
<path class="st87" d="M279.9,369.1c0.7,0.1,1.4,0.2,2.1,0.3c-0.8,0.4-1.5,0.6-2.1,0c-0.1-0.1-0.1-0.1-0.1-0.2
	C279.8,369.2,279.8,369.1,279.9,369.1z"/>
<path class="st88" d="M300.8,352.7c-0.1,0.1-0.2,0.3-0.4,0.4c-0.5-0.5-1-1-0.9-2C300.2,351.5,300.4,352.2,300.8,352.7z"/>
<path class="st89" d="M171.6,369.4c-0.4-0.6-1-0.2-1.5-0.4c0.5-0.4,1.2-0.3,1.8-0.3c0.3,0,0.5,0.1,0.4,0.4
	C172.1,369.4,171.9,369.4,171.6,369.4z"/>
<path class="st90" d="M182.9,354.2c-0.1-0.1-0.2-0.3-0.4-0.4c0.4-0.5,0.9-0.9,1.5-1c0.2,0.1,0.3,0.2,0.4,0.3
	C183.9,353.4,183.4,353.8,182.9,354.2z"/>
<path class="st91" d="M167.6,343.3c-0.5,0.5-1.2,0.6-1.9,0.7c-0.1-0.1-0.2-0.2-0.1-0.2c0-0.1,0.1-0.1,0.1-0.1c0.5-0.2,1-0.4,1.5-0.7
	C167.3,343.1,167.5,343.1,167.6,343.3z"/>
<path class="st92" d="M221.7,336.9c-0.1,0.1-0.3,0.3-0.4,0.4c-0.4,0-0.8,0-1.1,0c-0.2-0.1-0.3-0.3-0.5-0.4
	C220.4,336.5,221,336.4,221.7,336.9z"/>
<path class="st17" d="M324.3,365.3c-0.2,0-0.3,0-0.5,0c-0.5-0.4-0.9-0.8-1.4-1.1c0.1-0.1,0.3-0.3,0.4-0.4
	C323.4,364.2,324,364.7,324.3,365.3z"/>
<path class="st71" d="M350.8,356.4c0-0.1,0-0.2,0-0.3c0.7,0.2,1.3,0.4,2,1.2C351.7,357.2,351.3,356.9,350.8,356.4z"/>
<path class="st57" d="M222.8,340.3c0.3,0.2,0.3,0.5,0.4,0.8c-0.2,0.6-0.5,1-1.2,1.1c0,0,0,0,0,0C222.3,341.6,222.6,341,222.8,340.3z
	"/>
<path class="st5" d="M315.8,336.9c-0.1,0.1-0.3,0.3-0.4,0.4c-0.3-1-0.3-2,0-2.9c0.1,0.1,0.2,0.3,0.3,0.4
	C315.8,335.5,315.8,336.2,315.8,336.9z"/>
<path class="st93" d="M199.3,338.8c0.1-0.1,0.2-0.2,0.3-0.4c0.4,0.5,1,0.9,1.2,1.8C200,339.9,199.6,339.5,199.3,338.8z"/>
<path class="st94" d="M279.9,369.1c0,0.1,0,0.2,0,0.3c-0.7-0.1-1.2-0.5-1.4-1.2c0.1-0.2,0.3-0.3,0.4-0.5
	C279.2,368.3,279.5,368.7,279.9,369.1z"/>
<path class="st85" d="M184.4,353c-0.1-0.1-0.2-0.2-0.4-0.3c0.7-0.3,1.4-0.3,2.2,0c-0.1,0.1-0.3,0.2-0.4,0.3
	C185.3,353,184.9,353,184.4,353z"/>
<path class="st95" d="M351.2,351.1c-0.2,0-0.4-0.1-0.5-0.1c0-0.5,0.1-0.9,0.1-1.4c0,0,0,0,0,0C352.1,349.8,351.7,350.5,351.2,351.1z
	"/>
<path class="st17" d="M188.5,362.7c-0.1,0.1-0.2,0.3-0.3,0.4c-0.4-0.4-0.8-0.9-1.2-1.3c0-0.2,0-0.4,0.1-0.6
	C187.7,361.5,188.1,362,188.5,362.7z"/>
<path class="st82" d="M276.6,352.7c-0.1-0.2-0.3-0.3-0.4-0.5c0.2-0.6,0.6-1.1,1.1-1.5c0.1,0.1,0.3,0.3,0.4,0.4
	C277.3,351.7,276.9,352.2,276.6,352.7z"/>
<path class="st22" d="M216.4,351.8c0.1-0.2,0.2-0.4,0.4-0.6c0.5,0,1.1-0.1,1.5,0.3c0,0,0,0,0,0C217.8,351.9,217.1,351.9,216.4,351.8
	z"/>
<path class="st84" d="M182.1,331.5c0,0,0,0.1,0,0.1c-0.8,0.1-1.4-0.2-2-0.6c0.2-0.1,0.3-0.3,0.5-0.4
	C181.1,330.9,181.8,330.8,182.1,331.5z"/>
<path class="st13" d="M340.3,347.5c-0.5,0.2-1,0.4-1.5,0.6c-0.3,0-0.5,0.1-0.8,0.1c0,0,0,0,0,0C338.6,347.1,339.5,347.3,340.3,347.5
	z"/>
<path class="st5" d="M282.9,355.3c0.1-0.1,0.2-0.3,0.3-0.4c0.4,0.9,0.3,1.7,0,2.6l-0.2,0l-0.2,0C282.9,356.7,282.9,356,282.9,355.3z
	"/>
<path class="st96" d="M225,369.4c-0.3-0.5-0.8-0.3-1.2-0.4c0.4-0.3,0.9-0.3,1.4-0.3c0.2,0,0.5,0,0.5,0.3
	C225.6,369.4,225.3,369.4,225,369.4z"/>
<path class="st97" d="M353.4,362.3c0.1,0.3,0.2,0.5,0.3,0.8c-0.1,0.5-0.2,0.9-0.6,1.2c-0.1-0.1-0.2-0.3-0.3-0.4
	C353,363.3,353.2,362.8,353.4,362.3z"/>
<path class="st73" d="M219.8,365.6c-0.3-0.3-0.9-0.5-0.7-1.1c0.5,0.8,0.9,0.4,1.4,0c0,0.2,0,0.4,0.1,0.5
	C220.4,365.4,220.1,365.5,219.8,365.6z"/>
<path class="st98" d="M241.4,357.8c0.1,0.2,0.2,0.3,0.4,0.5c-0.1,0.5-0.4,0.9-0.8,1.2c-0.2,0-0.4,0-0.6,0
	C240.7,358.8,241,358.3,241.4,357.8z"/>
<path class="st52" d="M255.7,364.9c-0.2,0.1-0.3,0.3-0.5,0.4c-0.5-0.1-0.9-0.4-1.2-0.9c0-0.2,0-0.4,0.1-0.6
	C254.7,364.2,255.2,364.5,255.7,364.9z"/>
<path class="st5" d="M332.9,344.7c0.2-0.1,0.3-0.2,0.5-0.4c0.6,0,1.1,0,1.7,0.1c0.1,0.1,0.3,0.2,0.4,0.3
	C334.6,345,333.8,345,332.9,344.7z"/>
<path class="st7" d="M207.4,361.6c-0.1-0.1-0.2-0.3-0.3-0.4c0-0.1,0-0.2,0.1-0.3c0.2-0.4,0.4-0.7,0.6-1.1
	C208,360.4,208,361.1,207.4,361.6z"/>
<path class="st99" d="M195.9,368c-0.1-0.3,0-0.6-0.4-0.8c0.1-0.3,0.3-0.6,0.5-1C196.5,366.9,196.3,367.5,195.9,368z"/>
<path class="st81" d="M165.7,343.6c0,0.1,0,0.2,0,0.3c-0.7,0-1.4,0.2-2.2-0.2C164.2,343.4,165,343.7,165.7,343.6z"/>
<path class="st37" d="M298.6,340.7c-0.8-0.6-0.5-1.4,0-2.1C298.6,339.3,298.6,340,298.6,340.7L298.6,340.7z"/>
<path class="st100" d="M325.5,349.7c0-0.8,0-1.7,0-2.5C325.9,348.1,325.9,348.9,325.5,349.7z"/>
<path class="st101" d="M167.6,343.3c-0.1-0.1-0.3-0.2-0.4-0.3c0.4-0.3,0.8-0.5,1.2-0.8c0.1,0,0.3,0,0.4,0
	C168.5,342.7,168.2,343.1,167.6,343.3z"/>
<path class="st102" d="M215.4,363.9c-0.1-0.1-0.2-0.3-0.4-0.4c0.1-0.5,0.3-0.9,0.7-1.2c0.1,0.1,0.2,0.2,0.3,0.4
	C215.8,363.1,215.6,363.5,215.4,363.9z"/>
<path class="st81" d="M300.8,337.4c-0.1,0.1-0.3,0.2-0.4,0.3c-0.4,0-0.9,0-1.6,0C299.6,337,300.2,337.1,300.8,337.4z"/>
<path class="st46" d="M167.1,357.3c0.1,0.2,0.2,0.3,0.4,0.5c-0.2,0.4-0.5,0.8-0.7,1.1c-0.1-0.1-0.2-0.3-0.4-0.4
	C166.6,358.2,166.9,357.7,167.1,357.3z"/>
<path class="st5" d="M202.2,345.8c-0.6,0-1.3,0.2-1.8-0.2c0.6-0.1,1.2-0.2,1.8,0C202.2,345.7,202.2,345.8,202.2,345.8z"/>
<path class="st103" d="M249.7,367.3c0-0.3-0.1-0.6-0.1-0.9c0-0.2,0.1-0.6,0.1-0.6c0.4,0,0.3,0.3,0.2,0.5
	C250,366.6,249.8,366.9,249.7,367.3z"/>
<path class="st5" d="M298.6,340.7c0.5,0.3,0.8,0.6,0.7,1.3C298.7,341.7,298.4,341.3,298.6,340.7
	C298.6,340.7,298.6,340.7,298.6,340.7z"/>
<path class="st5" d="M319.1,345.6c0,0.1,0,0.1,0,0.2c-0.6,0-1.3,0.2-1.8-0.3C317.9,345.4,318.5,345.4,319.1,345.6z"/>
<path class="st17" d="M202.3,340.7c-0.1,0.1-0.3,0.2-0.4,0.4c-0.3-0.2-1-0.3-0.6-0.8C201.5,339.9,201.9,340.5,202.3,340.7z"/>
<path class="st85" d="M304.1,357.2c0.1-0.1,0.2-0.3,0.4-0.4c0,0.2,0.1,0.4,0.1,0.6c-0.1,0.4,0,0.9-0.4,1.2
	C304.2,358.1,304.1,357.7,304.1,357.2z"/>
<path class="st5" d="M283.4,407.9c0,4.7-3.9,7.1-8.2,5c-1-0.5-1.7-1.3-2-2.3c-0.3-1-0.4-2.1-0.4-3.1c0.1-3.8,1.8-5.6,5.3-5.6
	c3.5,0,5.1,1.8,5.2,5.6C283.4,407.5,283.4,407.7,283.4,407.9z"/>
<path class="st5" d="M265.9,407.8c0,4.8-3.8,7.1-8.1,5c-1.1-0.5-1.8-1.3-2.1-2.5c-0.3-1.1-0.3-2.2-0.3-3.3c0.1-3.5,1.8-5.3,5.1-5.3
	c3.5,0,5.3,1.6,5.5,5.1C265.9,407.2,265.9,407.5,265.9,407.8z"/>
<path class="st5" d="M248.3,407.7c0,4.8-3.7,7.1-8.1,5.1c-1.1-0.5-1.8-1.3-2.1-2.4c-0.2-0.8-0.4-1.7-0.4-2.6
	c-0.1-4.1,1.6-6.1,5.2-6.1C246.7,401.7,248.3,403.6,248.3,407.7z"/>
<path class="st9" d="M323.2,312.6c2.4,1.5,2.2,4.8-0.3,6.5c-0.4,0.2-0.5,0-0.4-0.3c1.9-1.8,2.1-3.7,0.7-5.7
	c-0.1-0.1-0.1-0.2-0.1-0.3C323.1,312.6,323.2,312.6,323.2,312.6z"/>
<path class="st49" d="M317.3,312.5c0,1.9-0.4,3.8,0.8,5.5c-0.2,0.1-0.3,0.1-0.4-0.1c-1.8-1.8-1.5-3.8-0.8-5.9
	C317.3,311.9,317.4,312.1,317.3,312.5z"/>
<path class="st104" d="M317.7,317.9c0.1,0,0.3,0,0.4,0.1c1.3,1,2.7,1.5,4.4,0.8c0.1,0.1,0.3,0.2,0.4,0.3
	C320.4,320.2,319,319.9,317.7,317.9z"/>
<path class="st24" d="M321,313.4c0.7,0.4,0.6,1,0.1,1.5c-0.3,0.2-0.9,0.2-1.1-0.2c-0.5-0.8-0.5-1.6,0.6-2
	C320.9,312.8,320.7,313.3,321,313.4z"/>
<path class="st12" d="M317.3,312.5c-0.1-0.2-0.2-0.3-0.4-0.5c0.5-1.2,1-2.4,2.4-2.9C318.7,310.2,317.8,311.2,317.3,312.5z"/>
<path class="st42" d="M321,313.4c-0.4-0.1-0.4-0.5-0.4-0.8c0.9-0.6,1.8-0.5,2.7-0.1c0,0.1,0,0.3,0,0.4
	C322.4,312.8,321.5,312.1,321,313.4z"/>
<path class="st67" d="M206.4,318.3c0.9-1.8,1.5-3.5,0-5.3c-0.1-0.3,0-0.5,0.4-0.4c1.8,1.7,1.8,4.1,0,5.9
	C206.6,318.5,206.5,318.5,206.4,318.3z"/>
<path class="st25" d="M200.4,312.8c0,1.6-0.3,3.3,0.8,5c-1.7-1.2-2-3.1-1.1-5.8C200.8,312,200.5,312.4,200.4,312.8z"/>
<path class="st6" d="M204.1,313c0.3,0.6,1.1,1.2,0.2,1.9c-0.4,0.3-0.9,0.2-1.1-0.2c-0.4-0.8-0.5-1.6,0.6-2
	C204.1,312.5,204.2,312.7,204.1,313z"/>
<path class="st105" d="M206.4,318.3c0.1,0.1,0.2,0.2,0.3,0.3c-0.9,1-2.1,1.3-3.4,0.9c-0.1-0.1-0.2-0.2-0.1-0.3
	c0-0.1,0.1-0.1,0.1-0.1C204.5,319.1,205.5,319,206.4,318.3z"/>
<path class="st36" d="M200.4,312.8c-0.1-0.3-0.2-0.5-0.3-0.8c0.2-0.7,0.5-1.4,1-1.9c0.4-0.1,0.5,0,0.4,0.4
	C201.2,311.3,200.8,312,200.4,312.8z"/>
<path class="st74" d="M204.1,313c-0.1-0.1-0.3-0.2-0.4-0.4c1-0.7,2-0.6,3,0c-0.1,0.1-0.3,0.2-0.4,0.4
	C205.6,312.6,204.9,312.6,204.1,313z"/>
<path class="st52" d="M201.5,310.5c-0.1-0.1-0.3-0.3-0.4-0.4c0.3-0.6,0.7-1.1,1.5-1.3C202.6,309.7,201.9,310,201.5,310.5z"/>
<path class="st65" d="M203.4,319.1c0,0.1,0,0.3,0,0.4c-0.7,0-1.3,0-1.7-0.8C202.4,318.3,202.8,319,203.4,319.1z"/>
</svg>
